<svg id="epWKuzX542c1" xmlns="http://www.w3.org/2000/svg" xmlns:xlink="http://www.w3.org/1999/xlink" viewBox="0 0 600 600" shape-rendering="geometricPrecision" text-rendering="geometricPrecision" project-id="50b59ea7970643fc90e13242baf5cf09" export-id="b8569d4ab7124f328907b105298c2793" cached="false" style="background-color:transparent"><defs><linearGradient id="epWKuzX542c26-fill" x1="285.68" y1="381.84" x2="146.68" y2="139.84" spreadMethod="pad" gradientUnits="userSpaceOnUse" gradientTransform="translate(0 0)"><stop id="epWKuzX542c26-fill-0" offset="22%" stop-color="#8ab036"/><stop id="epWKuzX542c26-fill-1" offset="76%" stop-color="#9fc943"/></linearGradient><linearGradient id="epWKuzX542c27-fill" x1="117.94" y1="162.06" x2="242.94" y2="287.06" spreadMethod="pad" gradientUnits="userSpaceOnUse" gradientTransform="translate(0 0)"><stop id="epWKuzX542c27-fill-0" offset="5%" stop-color="#93ab27"/><stop id="epWKuzX542c27-fill-1" offset="86%" stop-color="#698c1b"/></linearGradient><linearGradient id="epWKuzX542c32-fill" x1="125.33" y1="125.06" x2="267.11" y2="125.06" spreadMethod="pad" gradientUnits="userSpaceOnUse" gradientTransform="translate(0 0)"><stop id="epWKuzX542c32-fill-0" offset="10%" stop-color="#ba776a"/><stop id="epWKuzX542c32-fill-1" offset="84%" stop-color="#a36256"/></linearGradient><linearGradient id="epWKuzX542c33-fill" x1="89.57" y1="-1.8" x2="110.91" y2="62.2" spreadMethod="pad" gradientUnits="userSpaceOnUse" gradientTransform="translate(0 0)"><stop id="epWKuzX542c33-fill-0" offset="0%" stop-color="#8c5045"/><stop id="epWKuzX542c33-fill-1" offset="88%" stop-color="#753d33"/></linearGradient><linearGradient id="epWKuzX542c77-fill" x1="0.535064" y1="0.973625" x2="0.539501" y2="0" spreadMethod="pad" gradientUnits="objectBoundingBox" gradientTransform="translate(0 0)"><stop id="epWKuzX542c77-fill-0" offset="23%" stop-color="rgba(200,149,133,0.75)"/><stop id="epWKuzX542c77-fill-1" offset="100%" stop-color="rgba(240,211,202,0.02)"/></linearGradient><linearGradient id="epWKuzX542c78-fill" x1="0.535064" y1="0.973625" x2="0.539501" y2="0" spreadMethod="pad" gradientUnits="objectBoundingBox" gradientTransform="translate(0 0)"><stop id="epWKuzX542c78-fill-0" offset="23%" stop-color="rgba(200,149,133,0.75)"/><stop id="epWKuzX542c78-fill-1" offset="100%" stop-color="rgba(240,211,202,0.02)"/></linearGradient><linearGradient id="epWKuzX542c110-fill" x1="-0.042006" y1="0.533638" x2="0.388128" y2="0.76269" spreadMethod="pad" gradientUnits="objectBoundingBox" gradientTransform="translate(0 0)"><stop id="epWKuzX542c110-fill-0" offset="0%" stop-color="#3c5641"/><stop id="epWKuzX542c110-fill-1" offset="100%" stop-color="#050605"/></linearGradient><linearGradient id="epWKuzX542c110-stroke" x1="0" y1="0.5" x2="1" y2="0.5" spreadMethod="pad" gradientUnits="objectBoundingBox" gradientTransform="translate(0 0)"><stop id="epWKuzX542c110-stroke-0" offset="0%" stop-color="#0e1e11"/><stop id="epWKuzX542c110-stroke-1" offset="100%" stop-color="#122717"/></linearGradient><linearGradient id="epWKuzX542c117-fill" x1="-0.042006" y1="0.533638" x2="0.388128" y2="0.76269" spreadMethod="pad" gradientUnits="objectBoundingBox" gradientTransform="translate(0 0)"><stop id="epWKuzX542c117-fill-0" offset="0%" stop-color="#3c5641"/><stop id="epWKuzX542c117-fill-1" offset="100%" stop-color="#050605"/></linearGradient><linearGradient id="epWKuzX542c117-stroke" x1="0" y1="0.5" x2="1" y2="0.5" spreadMethod="pad" gradientUnits="objectBoundingBox" gradientTransform="translate(0 0)"><stop id="epWKuzX542c117-stroke-0" offset="0%" stop-color="#0e1e11"/><stop id="epWKuzX542c117-stroke-1" offset="100%" stop-color="#122717"/></linearGradient><linearGradient id="epWKuzX542c129-fill" x1="0.432724" y1="1.018704" x2="0.732058" y2="-0.223381" spreadMethod="pad" gradientUnits="objectBoundingBox" gradientTransform="translate(0 0)"><stop id="epWKuzX542c129-fill-0" offset="0%" stop-color="#282f1f"/><stop id="epWKuzX542c129-fill-1" offset="23%" stop-color="#0a0c06"/><stop id="epWKuzX542c129-fill-2" offset="100%" stop-color="#65765e"/></linearGradient><linearGradient id="epWKuzX542c130-fill" x1="0.30327" y1="0.752508" x2="0.644705" y2="0.019824" spreadMethod="pad" gradientUnits="objectBoundingBox" gradientTransform="translate(0 0)"><stop id="epWKuzX542c130-fill-0" offset="0%" stop-color="#0b150d"/><stop id="epWKuzX542c130-fill-1" offset="100%" stop-color="#314136"/></linearGradient><linearGradient id="epWKuzX542c131-fill" x1="0.432724" y1="1.018704" x2="0.732058" y2="-0.223381" spreadMethod="pad" gradientUnits="objectBoundingBox" gradientTransform="translate(0 0)"><stop id="epWKuzX542c131-fill-0" offset="0%" stop-color="#282f1f"/><stop id="epWKuzX542c131-fill-1" offset="23%" stop-color="#0a0c06"/><stop id="epWKuzX542c131-fill-2" offset="100%" stop-color="#65765e"/></linearGradient><linearGradient id="epWKuzX542c132-fill" x1="0.30327" y1="0.752508" x2="0.644705" y2="0.019824" spreadMethod="pad" gradientUnits="objectBoundingBox" gradientTransform="translate(0 0)"><stop id="epWKuzX542c132-fill-0" offset="0%" stop-color="#0b150d"/><stop id="epWKuzX542c132-fill-1" offset="100%" stop-color="#314136"/></linearGradient><linearGradient id="epWKuzX542c139-fill" x1="0.432724" y1="1.018704" x2="0.732058" y2="-0.223381" spreadMethod="pad" gradientUnits="objectBoundingBox" gradientTransform="translate(0 0)"><stop id="epWKuzX542c139-fill-0" offset="0%" stop-color="#282f1f"/><stop id="epWKuzX542c139-fill-1" offset="23%" stop-color="#0a0c06"/><stop id="epWKuzX542c139-fill-2" offset="100%" stop-color="#65765e"/></linearGradient><linearGradient id="epWKuzX542c140-fill" x1="0.432724" y1="1.018704" x2="0.732058" y2="-0.223381" spreadMethod="pad" gradientUnits="objectBoundingBox" gradientTransform="translate(0 0)"><stop id="epWKuzX542c140-fill-0" offset="0%" stop-color="#282f1f"/><stop id="epWKuzX542c140-fill-1" offset="23%" stop-color="#0a0c06"/><stop id="epWKuzX542c140-fill-2" offset="100%" stop-color="#65765e"/></linearGradient><linearGradient id="epWKuzX542c141-fill" x1="0.30327" y1="0.752508" x2="0.644705" y2="0.019824" spreadMethod="pad" gradientUnits="objectBoundingBox" gradientTransform="translate(0 0)"><stop id="epWKuzX542c141-fill-0" offset="0%" stop-color="#0b150d"/><stop id="epWKuzX542c141-fill-1" offset="100%" stop-color="#314136"/></linearGradient><linearGradient id="epWKuzX542c142-fill" x1="0.30327" y1="0.752508" x2="0.644705" y2="0.019824" spreadMethod="pad" gradientUnits="objectBoundingBox" gradientTransform="translate(0 0)"><stop id="epWKuzX542c142-fill-0" offset="0%" stop-color="#0b150d"/><stop id="epWKuzX542c142-fill-1" offset="100%" stop-color="#314136"/></linearGradient><linearGradient id="epWKuzX542c195-fill" x1="0.5" y1="0" x2="0.5" y2="1" spreadMethod="pad" gradientUnits="objectBoundingBox" gradientTransform="translate(0 0)"><stop id="epWKuzX542c195-fill-0" offset="0%" stop-color="rgba(255,255,255,0)"/><stop id="epWKuzX542c195-fill-1" offset="100%" stop-color="#010022"/></linearGradient></defs><rect width="60" height="60" rx="5" ry="5" transform="matrix(8.576953 0 0 5.111661 44.888791 108.950321)" fill="#b0bd7a" stroke-width="0"/><g transform="matrix(1.827918 0 0 1.827918-283.997025-357.030536)"><g transform="matrix(.570564 0 0 0.570564 185.898873 323.272229)"><polygon points="49.2,148.7 44.9,300.2 55.3,300.2 74.9,148.7 325.1,148.7 344.7,300.2 355.1,300.2 350.8,148.7 359,112 41,112" clip-rule="evenodd" fill="#704d29" fill-rule="evenodd"/><polygon points="25,99.8 375,99.8 375,112 25,112" clip-rule="evenodd" fill="#634829" fill-rule="evenodd"/><polygon points="106.3,148.7 85.3,148.7 81.8,300.2 90.3,300.2" clip-rule="evenodd" fill="#4f361d" fill-rule="evenodd"/><polygon points="293.7,148.7 314.7,148.7 318.2,300.2 309.7,300.2" clip-rule="evenodd" fill="#4f361d" fill-rule="evenodd"/></g><g transform="matrix(.311291 0 0 0.311291 160.885335 265.110789)"><g><path d="M143.7,303.4l3.8,41.4c1.8,19.6,14.8,30.3,33,30.3h23.1c18.1,0,31.2-10.7,33-30.3l3.8-41.4h-96.7v0Z" clip-rule="evenodd" fill="#b4d9d2" fill-rule="evenodd"/><path d="M145.9,326.7l1,10.8l1.7,1.7c1.3,1.3,3.6,1.3,4.9,0l11.4-11.4l4.8,4.8c1.4,1.3,3.6,1.3,4.9,0l2.3-2.3l11.6,11.5c1.3,1.4,3.6,1.4,4.9,0l6.7-6.7L205,340c1.4,1.3,3.6,1.3,4.9,0l11.8-11.8l11,11c1.2,1.2,3.2,1.3,4.5.3l1-10.8-3.1,3.1-11-11c-1.3-1.4-3.6-1.4-4.9,0l-11.8,11.8-4.9-4.9c-1.3-1.4-3.6-1.4-4.9,0l-6.7,6.7L179.3,323c-1.4-1.4-3.6-1.4-4.9,0l-2.3,2.3-4.8-4.8c-1.3-1.3-3.6-1.3-4.9,0L151,331.8l-5.1-5.1v0Z" clip-rule="evenodd" fill="#fff" fill-rule="evenodd"/><rect width="109.4" height="8.7" rx="0" ry="0" transform="translate(137.4 294.7)" clip-rule="evenodd" fill="#90b9b1" fill-rule="evenodd"/></g><g><g><path d="M190.5,219c-37.5-4.4-65.2-14.7-83.2-30.9c70.6-2.1,55.3-32.8-19.1-27.4-12.7-32.3-4-77.6,26.2-135.7c17.5,5.9,32.9,12.3,46.4,19.1-12.7,63.8-1.5,70.9,33.6,21.2c48.5,39.1,47.2,90.3-3.9,153.7v0ZM104.3,109.8c-1.9,3.4,1.9,9.1,8.5,12.8c6.6,3.6,13.4,3.8,15.3.4s-1.9-9.1-8.5-12.8c-6.6-3.6-13.5-3.8-15.3-.4v0ZM201.7,94c-6.3-2.5-15.3,5.4-20.1,17.6-4.7,12.2-3.5,24,2.9,26.5s15.3-5.4,20.1-17.5c4.7-12.2,3.4-24.1-2.9-26.6v0Z" clip-rule="evenodd" fill="#417358" fill-rule="evenodd"/><path d="M193.8,294.7C199,221,144.7,99.8,116.6,45.9c33.6,60.4,88,171,83.4,248.8h-6.2v0Z" fill="#53876b"/></g><g><path d="M164.4,253.2C148,261,134.1,264,122.7,262c28.2-19,14-27.5-14.8-6.2-13.5-9.9-21.6-30.5-24.2-61.8c8.6-2.1,16.5-3.5,23.8-4.2c11.2,29.2,17.6,29.2,19.1,0c29.7,3.4,42.3,24.5,37.8,63.4ZM101.3,231c.1,1.9,3.1,3.2,6.7,3s6.4-1.9,6.3-3.8-3.1-3.2-6.7-3c-3.5.2-6.4,1.9-6.3,3.8Zm35.6-31.5c-3.2.6-4.8,6.1-3.6,12.3s4.8,10.7,8,10c3.2-.6,4.8-6.1,3.7-12.3-1.3-6.1-4.9-10.6-8.1-10v0Z" clip-rule="evenodd" fill="#78a668" fill-rule="evenodd"/><path d="M180.5,294.7c-5.8-44.7-54.8-72.6-90.6-93.7c38.2,17.8,87.7,48.3,93.6,93.7h-3Z" fill="#9c9"/></g><g><path d="M215.1,251.7c29,4.1,51.8,1.8,68.5-6.8-52.6-15.5-35-35.6,19.7-16.7c15.9-21.8,18.3-57.4,7.2-107-14.3,1-27.1,2.7-38.6,5.2-3.1,50.4-12.9,53.4-29.4,9.3-44.1,19.6-53.2,58.3-27.4,116Zm86.2-64.9c.7,2.9-3.2,6.5-8.9,7.9-5.6,1.4-10.8.2-11.6-2.8-.7-2.9,3.2-6.5,8.9-7.9s10.9-.2,11.6,2.8Zm-69.9-31.1c5.3-.6,10.4,7.1,11.6,17.1c1.2,10.1-2.1,18.7-7.4,19.3s-10.4-7.1-11.6-17.1c-1.2-10.1,2.1-18.7,7.4-19.3Z" clip-rule="evenodd" fill="#5c8a5c" fill-rule="evenodd"/><path d="M203.3,294.7c-.4-52.3,67.1-134.6,99.1-163.4-30.6,34.2-93.1,111.3-92.4,163.4h-6.7Z" fill="#696"/></g></g></g><g transform="matrix(.098835 0 0 0.098835 236.131286 346.678424)"><g><path d="M249.53,347h-106.62c-2.067823-.076141-3.768737-1.65374-4-3.71L112,157.14c-.226553-1.216376.083103-2.471337.849474-3.442713s1.914823-1.564565,3.150526-1.627287h160.47c1.235703.062722,2.384154.655911,3.150526,1.627287s1.076027,2.226337.849474,3.442713L253.55,343.29c-.232428,2.063534-1.94448,3.643562-4.02,3.71Z" fill="url(#epWKuzX542c26-fill)"/><path d="M272.79,290.47l12.5-86.41c.226553-1.216376-.083103-2.471337-.849474-3.442713s-1.914823-1.564565-3.150526-1.627287h-170.12c-1.235703.062722-2.384154.655911-3.150526,1.627287s-1.076027,2.226337-.849474,3.442713l12.5,86.41c.231263,2.05626,1.932177,3.633859,4,3.71h145.1c2.07552-.066438,3.787572-1.646466,4.02-3.71Z" fill="url(#epWKuzX542c27-fill)"/><g><path d="M191.43,271.64c2.395525-7.956944,2.395525-16.443056,0-24.4-1.54861-4.846065-2.29181-9.91334-2.2-15-.053556-3.67015.31554-7.334266,1.1-10.92.155591-.669595-.072928-1.370248-.593383-1.81935s-1.247013-.572588-1.886617-.32065c-9.73,4-16.69,14.77-16.69,27.42c0,12.35,6.64,22.9,16,27.12.826203.357319,1.766027.34287,2.580855-.039679s1.426292-1.096403,1.679145-1.960321Z" fill="#9fc943"/><path d="M203.46,218.73c-.494278-.174638-1.038747-.1373-1.504558.10318s-.811565.662728-.955442,1.16682v0c-2.395525,7.956944-2.395525,16.443056,0,24.4c2.662406,8.925101,2.914273,18.396007.73,27.45-.51,2,.6,3,2.48,2.27c9.92-3.88,17.06-14.75,17.06-27.56.03-13.12-7.49-24.22-17.81-27.83Z" fill="#9fc943"/></g></g><g><path d="M142,109.5h108.5c1.599013.016693,3.034434.984128,3.65,2.46l13,28.67h-141.82l13-28.67c.618414-1.482519,2.063693-2.451289,3.67-2.46Z" fill="url(#epWKuzX542c32-fill)"/><rect width="193.42" height="39.24" rx="6.73" ry="6.73" transform="translate(99.51 136.55)" fill="url(#epWKuzX542c33-fill)"/></g></g><path id="epWKuzX542c34" d="M-43.025574,8.233993c5.584097-13.631316-3.81617,16.65238,13.446741,11.225089-8.232544,2.273872,2.054592,9.680708-9.288812,11.332351-6.352375,2.832956,26.361201,14.499789,3.452587,17.193772c2.711981-1.896182-26.116466-17.568762-8.096993-22.488395c7.523938-.928881-4.812514-3.734145.486477-17.262817Z" transform="matrix(.356482 0 0-.356482 270.623012 360.121398)" opacity="0.22" fill="rgba(224,232,248,0.45)" stroke-width="0"/><path id="epWKuzX542c35" d="M-43.025574,8.233993c5.584097-13.631316-2.474156,9.946438,9.739638,12.546942c5.3403,3.788432,9.401508,13.236545-.251693,14.246171-10.890537,7.137348,9.450514,6.209879,1.553331,15.268296-19.439188,2.291888-21.85204-6.007536-11.527753-24.798592c4.805766-2.892625-6.221574-5.514119.486477-17.262817Z" transform="matrix(.72 0 0-.356482 284.710835 371.870953)" opacity="0.77" fill="rgba(224,232,248,0.14)" stroke-width="0"/><g transform="matrix(.320287 0 0 0.43077 371.045792 336.446502)"><g><polygon points="325.3,375 313.8,375 274.5,231.7 196.7,231.7 157.5,375 146,375 175.1,224.4 296.2,224.4" clip-rule="evenodd" fill="#533618" fill-rule="evenodd"/><polygon points="271.8,375 260.3,375 221.1,231.7 143.3,231.7 104,375 92.5,375 121.6,224.4 242.7,224.4" clip-rule="evenodd" fill="#694721" fill-rule="evenodd"/><polygon points="263.8,224.4 64.1,224.4 64.1,220 263.8,220" clip-rule="evenodd" fill="#634829" fill-rule="evenodd"/><polygon points="329.7,224.4 263.8,224.4 263.8,220 329.7,220" clip-rule="evenodd" fill="#533618" fill-rule="evenodd"/></g><g><path d="M186,25h135.2c4.6,0,8.1,3.6,8,8.2l-3.7,177.5c-.1,2.5-1,4.7-2.9,6.5s-4.1,2.7-6.6,2.7h-159.2c-2.5,0-4.6-.9-6.2-2.8-1.6-1.8-2.2-4.1-1.8-6.6L176.5,33c.8-4.5,4.9-8,9.5-8v0Z" clip-rule="evenodd" fill="#a7d6a7" fill-rule="evenodd"/><path d="M321.2,25h11.8c4.6,0,8.1,3.6,8,8.2l-3.7,177.5c-.1,2.5-1,4.7-2.9,6.5s-4.1,2.7-6.6,2.7h-11.8c2.5,0,4.7-.9,6.6-2.7s2.8-4,2.9-6.5l3.7-177.5c.1-4.6-3.4-8.2-8-8.2v0Z" clip-rule="evenodd" fill="#cfc" fill-rule="evenodd"/><path d="M59,220c-1.1-22.6,15.4-33.3,49.5-32c53.8,0,107.7,0,161.5,0v32c-70.3,0-140.7,0-211,0v0Z" clip-rule="evenodd" fill="#9c9" fill-rule="evenodd"/><path d="M332.6,220c-43.9,0-91.3,0-142.3,0-1.1-22.6,15.4-33.3,49.5-32h41.1c31.5-.6,48.7,10.1,51.7,32Z" transform="translate(-2.592784-.963895)" clip-rule="evenodd" fill="#cfc" fill-rule="evenodd"/><path d="M186,25h135.2c4.6,0,8.1,3.6,8,8.2l-3.3,157.7c-10.7-8-26.1-10.4-41.9-10.1h-130.5L176.6,33.2c.7-4.7,4.8-8.2,9.4-8.2v0Z" clip-rule="evenodd" fill="#9c9" fill-rule="evenodd"/></g></g></g><ellipse rx="125.014389" ry="10.205256" transform="matrix(1.17493 0 0 0.946326 337.10723 552.113211)" fill="#676f6b" stroke-width="0"/><g transform="translate(0 0.624529)"><g id="epWKuzX542c50" transform="translate(1.526454 0.000001)"><path d="M0.41377,1.961767h63.123966c-2.054984,27.693998,3.527859,44.283019,14.161953,45.944596-14.50108,36.694245-78.8913,35.576361-89.008094.920261C-3.905406,47.994748,1.502777,27.841904,0.41377,1.961767Z" transform="matrix(.309012 0 0 0.309012 311.031819 111.09416)" fill="#ffc0ad" stroke-width="0"/><path d="M70.755287,-122.066629c-1.165579,28.490078-11.933864,96.64435-24.170083,133.827964-4.571943,5.314101-24.874901,13.466056-42.834585,10.021972-7.192731-12.656079-16.877807-11.635337-23.406499-6.942711-10.155592-3.578137-24.967011-18.390995-27.393111-25.176043L70.755287,-122.066629Z" transform="matrix(-.966705 0.255893-.255893-.966705 318.209045 143.561469)" fill="#fafaff" stroke-width="0"/><path d="M64.976897,-9.184246c1.895797,11.824102,2.503197,49.517726,3.029309,75.387249-2.366769,9.827294,1.110251,21.884694-4.05479,22.624522-36.927214.830358-89.082378,4.061506-103.529232-.654963L64.976897,-9.184246Z" transform="matrix(.807944 0 0 1.424157 313.004745 154.13139)" fill="#e7ecec" stroke-width="0"/><path d="M11.137894,-1.525081c21.664609-.474279,47.522931,3.11625,52.275187-2.906101-.452459,9.300905-.592761,11.253963-.909481,16.300972-14.448235,1.911215-39.802813,3.224306-50.913548,2.334709-.465762-2.593305-1.408351-11.653669-.452158-15.72958Z" transform="matrix(1.641756 0 0 1.030276 262.540586 281.082206)" fill="#edf3ff" stroke-width="0"/><path d="M9.930897,-0.930871c16.627755,1.479519,45.620732.297582,58.202688-3.675578.742845.407151,2.540301,4.156093,4.928944,10.036085.050477,3.870318-46.315701,11.067944-63.320901,9.141896-.092721-2.632343-.070854-11.019342.189269-15.502403Z" transform="matrix(1.641756 0 0 1.030276 253.608728 145.151025)" fill="#092660" stroke-width="0"/><path d="M9.550329,-0.157376c16.627755,1.479519,46.645319-.477674,59.227275-4.450834.742845.407151.228121,12.791678.145031,13.122662-4.821252,3.716729-36.826183,9.279411-58.475065,7.527748-.385381-1.544735-.978561-10.97453-.897241-16.199576Z" transform="matrix(1.641756 0 0 1.030276 253.908247 179.022156)" fill="#092660" stroke-width="0"/><path d="M9.337574,-0.248724c16.627755,1.479519,45.25235-.21472,57.834306-4.18788.038024,5.089583.08309,13.98624,0,14.317224-4.821252,3.716729-35.190504,7.708037-56.839386,5.956374-.331982-1.656901-.704764-10.173959-.99492-16.085718Z" transform="matrix(1.641756 0 0 1.030276 257.192431 216.885595)" fill="#092660" stroke-width="0"/><path d="M8.779582,-0.187547c16.627755,1.479519,43.079992.75317,55.661948-3.21999.038024,5.089583-.214554,13.729439-.297644,14.060423-4.821252,3.716729-32.152744,6.776061-53.801626,5.024398-.331982-1.656901-1.272522-9.953072-1.562678-15.864831Z" transform="matrix(1.641756 0 0 1.030276 262.061027 252.682705)" fill="#092660" stroke-width="0"/></g><g><path d="M-2.494897,6.051884L60.55116,2.709018l53.594701.912578L26.980435,7.602634L-2.494897,6.051884Z" transform="matrix(.985462 0 0 1.353334 339.4381 240.67351)" fill="#3f4042" stroke-width="0"/><path d="M-2.494897,6.051884L60.55116,2.709018l53.594701,1.352347L26.980435,7.602634L-2.494897,6.051884Z" transform="matrix(.985462 0 0 1.353334 339.4381 240.003119)" fill="#acaeb4" stroke-width="0"/><path d="M-0.38145,64.018664c9.789422-6.954962,24.16052-18.804527,28.061636-20.376136l.227334,5.566857C17.34846,57.148335,3.420911,68.084552,-0.388972,69.824412l.007522-5.805748Z" transform="matrix(1 0 0-.100296 337.385386 255.227527)" fill="#d2dbed" stroke-width="0"/><path d="M1,0h87.241371c.552285,0,1,.447715,1,1v52.82953c0,.552285-.447715,1-1,1L1,54.82953c-.552285,0-1-.447715-1-1L0,1c0-.552285.447715-1,1-1Z" transform="matrix(.976369-.060372-.099571 1.044534 370.642203 193.5999)" fill="#616265" stroke-width="0"/></g><g id="epWKuzX542c64" transform="translate(2.90314 5.78495)"><g transform="translate(.063607-.286523)"><ellipse rx="4.311826" ry="5.481702" transform="matrix(1.761952 0 0 1.573035 304.341064 89.936952)" fill="#ffc3ae" stroke-width="0"/><ellipse rx="4.311826" ry="5.481702" transform="matrix(1.761952 0 0 1.573035 336.979474 90.48293)" fill="#fdc4ad" stroke-width="0"/><path d="M-1.684252,-24.458532c5.710704-.457947,12.399716,5.471396,16.087865,11.85889l3.351471,41.693476c-16.886999-.073582-38.187083,2.159574-41.668243-1.571544l6.665555-40.342739c4.398443-7.074267,10.542128-12.283569,15.563352-11.638083Z" transform="matrix(-.998308 0.058154-.058154-.998308 317.60721 92.36196)" fill="#fbc4b0" stroke-width="0"/></g><g transform="translate(.000015 5.070059)"><path d="M9.299261,-0.398132c2.915778-.736257,8.701579-7.990605,12.781941-11.743573.808594,5.090749-9.903822,16.919266-13.945984,19.472154-7.911024,1.056809-19.979431-1.520329-26.006432-11.950434l13.428545-6.601937c1.186853-.44964,10.027984,8.671216,13.74193,10.82379Z" transform="matrix(-.673086 0.739564-.739564-.673086 308.017382 59.124013)" fill="#292a2c" stroke-width="0"/><path d="M9.95157,1.597493c3.612209-.102426,8.05677-9.444174,11.657561-13.633605C23.257426,-5.487939,10.354009,9.578685,6.45199,9.380676c-5.242021,1.461203-12.123923,4.254873-19.300756-6.349449l6.744331-13.969419C0.976042,-8.369621,4.711481,7.936696,9.95157,1.597493Z" transform="matrix(.739564 0.673086 0.673086-.739564 329.094965 60.08218)" fill="#27282a" stroke-width="0"/><path d="M-7.668825,-5.06887c6.611351-3.636504,21.548235,16.434875,9.884447,24.810261C4.401367,17.345894,3.962404,5.265382,-1.486291,4.631542c-3.799661,1.047789,8.800247,8.62053-1.581119,17.115548c4.11465-23.251518-9.572078,3.346446-16.08614-1.368117c4.469808,1.362683.925344-17.360013,11.484725-25.447843Z" transform="translate(330.859217 56.689615)" fill="#24252a" stroke-width="0"/><path d="M-2.386099,2.829726C10.945606,0.931737,23.592553,13.898822,2.770294,21.358167C7.198429,14.475178,6.20837,6.10249,-0.216834,5.480609C-8.628197,9.088685,-2.84865,16.106268,-6.819102,17.19494c-1.968453-5.681336-5.710392,4.87219-5.77711,7.781962-7.088941-7.953563,4.142073-14.79035,10.210113-22.147176Z" transform="translate(322.277424 50.296399)" fill="#27282a" stroke-width="0"/><path d="M-3.719039,4.825503c7.388686-2.824604,18.561578,18.572645,2.606068,24.102092c4.332995-4.780633,6.918115-20.520215-.787241-21.01633-7.074579,4.03471,1.067115,11.044623-.947438,9.605656-1.982512-25.065134,8.799136,19.430103-3.805723,12.007751c7.875843,1.579119-3.642458-14.966652,2.934334-24.699169Z" transform="translate(325.4748 46.089858)" fill="#26272c" stroke-width="0"/><path d="M1.165114,0.00586c13.331705-1.897989,10.218203,16.865664-4.310504,21.578997C11.249995,0.920833,-1.856251,10.060733,1.519909,9.299109C-9.661077,12.210876,-12.887312,20.0996,-11.002799,15.08537c5.350259-11.573625-1.319148,9.263422.565921,10.178429-8.669816-3.501964,1.68528-17.622405,11.601992-25.257939Z" transform="translate(315.319914 51.007888)" fill="#27282a" stroke-width="0"/></g><g transform="translate(.251477-.067283)"><path d="M12.565326,39.546409c38.927017-3.65766,39.902575-18.74069,61.15013-59.083848c5.334239,31.098671-22.774242,50.901215-36.889253,63.704623-12.563856,9.480541-36.628201,8.267851-53.984414.02372-32.909356-33.392454-37.531349-26.434315-39.416382-65.492423c27.980628,53.318312,58.475534,58.91643,69.139919,60.847928Z" transform="matrix(.2476 0 0 0.2476 317.324372 103.675234)" fill="url(#epWKuzX542c77-fill)" stroke-width="0"/><path d="M12.144332,38.299369C54.29289,45.687067,27.202196,15.286249,43.268841,0.022285c4.577488,3.630962,4.818877,28.339474-3.215889,41.087763-24.170169,5.335432-45.273185,5.749145-60.387364-1.69426-4.426362-5.351261-12.66211-37.176194.320733-37.113776c6.941449,33.372342-1.700377,43.349121,32.158011,35.997357Z" transform="matrix(.2476 0 0-.2476 318.060978 110.893547)" fill="url(#epWKuzX542c78-fill)" stroke-width="0"/><line x1="-4.838982" y1="0.101873" x2="5.31274" y2="-0.23004" transform="translate(309.804838 81.324844)" fill="none" stroke="#232528" stroke-width="3"/><line x1="-4.900589" y1="-0.147386" x2="5.047974" y2="0.147386" transform="translate(331.118535 81.288596)" fill="none" stroke="#232528" stroke-width="3"/><ellipse id="epWKuzX542c81" rx="1.932418" ry="2.498816" transform="translate(309.547887 88.433167)" fill="#2e2b01" stroke-width="0"/><ellipse rx="1.932418" ry="2.498816" transform="translate(330.004858 88.566437)" fill="#2e2b01" stroke-width="0"/><path d="M3.426109,-6.409766l-.807827,2.474113l1.019806,2.516414.843034,2.875244.502158,2.392156-.665955-.162862-.349733-.725476-.557086-.904469-1.751305-3.203283-1.366218-3.015497l3.133126-2.24634Z" transform="matrix(-.968633-.248497 0.248497-.968633 324.367948 93.762102)" fill="#f1b59b" stroke-width="0"/><path d="M299.83168,87.101202c-1.971237,3.391942-.875308,5.087053,1.512794,6.753544" transform="matrix(-1 0 0 1 639.670052-.827545)" fill="none" stroke="#f1b59b" stroke-width="1.2"/><path d="M299.83168,87.101202c-1.971237,3.391942-.875308,5.087053,1.512794,6.753544" transform="translate(.733015 0.058871)" fill="none" stroke="#f1b59b" stroke-width="1.2"/><path id="epWKuzX542c86" d="M1.884028,2.497849c3.353636.580007,4.826645.860007,8.073876,0-.829242,1.964483-.418773,2.948485-.690016,3.004847-1.542061.516968-4.732309.515864-6.380277,0-.709176-.767553-.158908-1.131098-1.003583-3.004847Z" transform="translate(315.082509 100.862438)" fill="none" stroke-width="0"/><path d="M46.433469,-18.54102L32.67444,-1.485956h-48.537773L-51.246535,-18.54102l53.941915.732265l43.738089-.732265Z" transform="matrix(.084479 0 0 0.084479 321.11776 105.442924)" fill="rgba(172,53,44,0.14)" stroke-width="0"/></g></g><g id="epWKuzX542c88" transform="translate(.000001-.139314)"><path d="M-28.770227,-38.523337c4.688654,2.617664,10.774254,7.755431,16.933654,19.359108c6.4403,52.011067,3.930234,33.448618,4.619091,38.525109-16.669131,2.335872-6.878738-7.657525-14.525997,42.629857-1.858496-27.923828-6.485998-85.0423-7.026748-100.514074Z" transform="translate(388.253246 173.681432)" fill="#d7d9d9" stroke-width="0"/><g transform="translate(.000001 0)"><path d="M-8.814304,0.375687l13.219078-.666078c.392242,1.016715,4.555487,2.196426,8.920883,5.794967h-11.234436c-3.151026-.583351-8.168699-2.754182-10.905525-5.128889Z" transform="translate(400.847059 248.790062)" fill="#f0d2c3"/><g transform="translate(-.103803 0.242544)"><path d="M4.71579,-0.92625l10.520078.432491-3.056509,3.848901L0.733144,2.912394L4.71579,-0.92625Z" transform="translate(403.596842 250.718849)" fill="#f0d2c3" stroke="#f0d2c3"/><line x1="-29.587197" y1="0" x2="-28.914281" y2="-4.303051" transform="translate(437.310066 253.113943)" fill="#f0d2c3" stroke="#f0d2c3" stroke-width="3"/><line x1="-30.942618" y1="-1.645284" x2="-28.219248" y2="-9.129184" transform="translate(441.515304 254.707329)" fill="#f0d2c3" stroke="#f0d2c3" stroke-width="3"/><line x1="-30" y1="0" x2="-25.688243" y2="-6.880244" transform="translate(442.255043 253.005825)" fill="#f0d2c3" stroke="#f0d2c3" stroke-width="3"/><line x1="-30" y1="-7.123324" x2="-25.140944" y2="-12.411657" transform="translate(444.278078 260.129147)" fill="#f0d2c3" stroke="#f0d2c3" stroke-width="3"/><line x1="-33.056509" y1="-14.63894" x2="-27.572369" y2="-17.827433" transform="translate(448.567024 267.833828)" fill="#f0d2c3" stroke="#f0d2c3" stroke-width="3"/><line x1="0.293598" y1="4.445259" x2="0.847129" y2="-2.741621" transform="translate(408.038627 244.52422)" fill="#f0d2c3" stroke="#f0d2c3" stroke-width="3"/><line x1="-9.740119" y1="-11.85782" x2="-8.971192" y2="-21.30927" transform="translate(423.006685 258.325379)" fill="#f0d2c3" stroke="#f0d2c3" stroke-width="3"/><line x1="-4.171061" y1="-23.509052" x2="-3.897411" y2="-33.455688" transform="translate(420.633613 270.402185)" fill="#f0d2c3" stroke="#f0d2c3" stroke-width="3"/><line x1="-9.90687" y1="-34.377121" x2="-8.354991" y2="-41.997063" transform="translate(428.490016 283.016485)" fill="#f0d2c3" stroke="#f0d2c3" stroke-width="3"/><line x1="5.271198" y1="-43.660761" x2="10.072296" y2="-48.688089" transform="translate(415.32127 293.993933)" fill="#f0d2c3" stroke="#f0d2c3" stroke-width="3"/></g></g><path d="M1.090473,-1.451056c6.66526.861249,28.090735-3.605719,29.972685-4.563861c1.698578,18.269724,2.97251,45.098241,3.202892,50.80114-2.533521,1.690263-18.94927.000825-31.359863,1.300232L1.090473,-1.451056Z" transform="matrix(.548997 0 0 0.28328 361.800064 176.93386)" fill="#071f50" stroke-width="0"/><path d="M1.053439,-1.140652c3.767747-.1415,10.655238-.383885,13.952346-.85228c5.414862,9.197057,12.905702,31.858005,15.899516,45.23733-1.645505,1.549325-15.865793,1.624519-28.276386,2.923926L1.053439,-1.140652Z" transform="matrix(.548997 0 0 0.28328 359.202292 142.351018)" fill="#071f50" stroke-width="0"/><path d="M1.274528,-1.628858c6.66526-.022417,4.932944-.943722,6.814894-.760912C6.371104,23.655959,5.373121,44.262613,4.868358,49.707924c-2.622965.564806,1.473616-.446748-2.032939.532491L1.274528,-1.628858Z" transform="matrix(.548997 0 0 0.28328 364.777886 215.37073)" fill="#071c48" stroke-width="0"/></g><g transform="matrix(.995699 0.092652-.092652 0.995699 52.308839-51.601373)"><path d="M-19.262015,-44.149191c24.262931,2.813954,52.884459,2.528176,67.469192,2.528177c5.044198-1.083504,24.028899,45.667896.83833,52.730547-25.645429.884149-58.264934,41.713493-76.878524,38.644989-24.558746,7.198767-66.606507,2.8707-46.987281-30.338122c12.266796-14.643143,55.558284-53.452883,55.558283-63.565591Z" transform="matrix(.322212 0 0 0.322212 296.502853 570.994315)" fill="url(#epWKuzX542c110-fill)" stroke="url(#epWKuzX542c110-stroke)"/><path d="M272.522449,578.885823c1.271089,3.767325,5.198627,5.144161,11.750226,4.139824c8.578126-4.57194,21.244219-11.448522,25.958284-10.779195c2.874253-3.779072,5.772458-7.071835,5.608131-7.614662" transform="translate(-.914886 0.055768)" fill="none" stroke="#202020" stroke-width="1.2"/><path d="M277.135302,572.739794l8.05526,2.028303" transform="translate(-.94878-.457292)" fill="none" stroke="#152019" stroke-width="1.2"/><path d="M281.457806,568.357418l7.789362,2.122266" transform="translate(-1.184027-.224718)" fill="none" stroke="#152019" stroke-width="1.2"/><path d="M285.263538,564.693621l7.11301,1.613556" transform="translate(-1.080481-.521991)" fill="none" stroke="#152019" stroke-width="1.2"/><path d="M288.976826,560.394268l7.425731,1.401963" transform="translate(-1.29245-.261609)" fill="none" stroke="#152019" stroke-width="1.2"/></g><g transform="matrix(-1.110076 0.189343 0.168139 0.985763 623.861288-73.789333)"><path d="M-16.409973,-48.518695c24.262931,2.813954,50.032417,6.89768,64.61715,6.897681c5.044198-1.083504,24.028899,45.667896.83833,52.730547-25.645429.884149-58.264934,41.713493-76.878524,38.644989-24.558746,7.198767-66.606507,2.8707-46.987281-30.338122c12.266796-14.643143,58.410326-57.822387,58.410325-67.935095Z" transform="matrix(.322212 0 0 0.322212 295.905601 571.033205)" fill="url(#epWKuzX542c117-fill)" stroke="url(#epWKuzX542c117-stroke)"/><path d="M272.522449,578.885823c1.271089,3.767325,5.198627,5.144161,11.750226,4.139824c8.578126-4.57194,21.244219-11.448522,25.958284-10.779195c2.874253-3.779072,5.772458-7.071835,5.608131-7.614662" transform="translate(-.914886 0.055768)" fill="none" stroke="#202020" stroke-width="1.2"/><path d="M277.135302,572.739794l8.05526,2.028303" transform="translate(-.94878-.457292)" fill="none" stroke="#152019" stroke-width="1.2"/><path d="M281.457806,568.357418l7.789362,2.122266" transform="translate(-1.184027-.224718)" fill="none" stroke="#152019" stroke-width="1.2"/><path d="M285.263538,564.693621l7.11301,1.613556" transform="translate(-1.080481-.521991)" fill="none" stroke="#152019" stroke-width="1.2"/><path d="M288.976826,560.394268l7.425731,1.401963" transform="translate(-1.29245-.261609)" fill="none" stroke="#152019" stroke-width="1.2"/></g><g transform="translate(0 0.000002)"><g transform="translate(.290381-22.249803)"><path d="M6.966388,16.815223l42.920139.635854c-.889644,74.086184-28.759472,133.411613-30.95211,142.862636l-33.480242.107469c-4.082842-14.516772,10.332589-83.2749,21.512213-143.605959Z" transform="matrix(-1 0 0 1 371.269539 300.11225)" fill="#171c10" stroke-width="0"/><path d="M-2.525464,-17.336384l32.52941-.495875c.078072,30.183589-10.749444,90.323844-15.28822,97.561352-8.096195,0-22.080534-3.925428-28.827363-6.378821-3.318776-7.853089,9.779443-58.847898,11.586173-90.686656Z" transform="matrix(-1 0 0 1 383.609355 478.386441)" fill="#171c10" stroke="#292b1e"/><path d="M346.117677,318.232524c.849478,18.580175,9.598515,36.018296,24.536077,32.52602" transform="translate(.000001-.079473)" fill="none" stroke="#121310" stroke-width="1.2"/><path d="M353.133098,460.315809c9.562205.334198,26.230801.587458,33.337193.262756" fill="none" stroke="#191a19" stroke-width="1.2"/><path d="M-0.342908,-2.026566c2.679319-.581296,11.307403-4.567231,14.559927-5.023426.79758,7.684053,2.122029,22.763298,2.465974,24.884343-2.70708,1.28795-12.140501,6.032378-17.428132,6.26838-3.850198-2.637889-1.012156-18.213984.402231-26.129297Z" transform="matrix(-1.14608 0 0 1.150547 393.598002 481.603533)" fill="url(#epWKuzX542c129-fill)" stroke="rgba(0,0,0,0.06)"/><path d="M-8.550946,43.417712c24.471181-5.180881,89.210879-26.699254,115.873601-29.232447-2.200632,13.623283-6.824033,50.659047-6.459096,59.99054-27.63978,14.477738-99.607415,34.173235-123.952255,36.965257c1.128349-14.497841,10.919119-57.895614,14.53775-67.72335Z" transform="matrix(-.139589 0 0 0.139589 392.42652 471.512079)" fill="url(#epWKuzX542c130-fill)" stroke-width="0"/><path d="M2.827772,-3.951881c2.679319-.581296,12.223804-4.161969,15.476328-4.618164c1.996945,8.480525.921899,24.984758.855163,26.833079-2.70708,1.28795-13.098392,5.300982-18.386023,5.536984-3.850198-2.637889.640145-19.836586,2.054532-27.751899Z" transform="matrix(-1.14608 0 0 1.150547 387.091426 416.677262)" fill="url(#epWKuzX542c131-fill)" stroke="rgba(0,0,0,0.06)"/><path d="M12.459518,35.480282C36.930699,30.299401,112.566881,3.179755,139.229603,0.646562c-2.200632,13.623283-3.101799,66.616642-2.736862,75.948135-27.63978,14.477738-120.896442,35.138838-145.241282,37.93086c7.912808-24.09053,22.022756-69.217539,21.208059-79.045275Z" transform="matrix(-.139589 0 0 0.139589 385.695434 406.726769)" fill="url(#epWKuzX542c132-fill)" stroke-width="0"/><path d="M325.236654,323.657233c11.481086,39.598061,31.542268,106.264702,37.569179,136.66953c5.35456,26.446965,13.082574,75.10091,14.772815,97.307891" transform="translate(0 0.53975)" fill="none" stroke="#081b10" stroke-width="1.2"/></g><g transform="translate(.540094-21.908801)"><path d="M0.998381,21.143315l43.221877-.398971c-3.708123,72.642699-5.071557,134.015115-5.504647,144.404859L2.588049,172.545788c-1.438555-18.1816-.706967-83.530722-1.589668-151.402473Z" transform="translate(280.279565 296.560759)" fill="#021608" stroke-width="0"/><path d="M-8.444404,-17.79167l35.677443-6.914234c.078072,30.183589,1.417386,87.42629-3.996517,93.706417-6.08369,1.691175-20.67196-.270315-28.041794-1.880353-4.006058-7.285051-2.672405-52.148587-3.639132-84.91183Z" transform="translate(291.632772 486.415654)" fill="#021608" stroke-width="0"/><path d="M303.713341,318.910494c4.147838,12.679842-7.532896,34.705541-20.148901,30.599491" transform="translate(-.444264 0.000001)" fill="none" stroke="#121310" stroke-width="1.2"/><path d="M283.302797,468.843234q.044401,0,35.387065-6.660051" transform="translate(-.02 0.000001)" fill="none" stroke="#181817" stroke-width="1.2"/><path d="M-0.342908,-2.026566c2.679319-.581296,11.307403-4.567231,14.559927-5.023426.79758,7.684053,2.122029,22.763298,2.465974,24.884343-2.70708,1.28795-11.718815,3.957167-17.006446,4.193169-3.850198-2.637889-1.433842-16.138773-.019455-24.054086Z" transform="matrix(1.14608 0 0 1.150547 283.80858 486.609929)" fill="url(#epWKuzX542c139-fill)" stroke="rgba(0,0,0,0.06)"/><path d="M-0.081924,-2.8201c2.679319-.581296,15.1335-5.29375,18.386024-5.749945c1.996945,8.480525.921899,24.984758.855163,26.833079-2.70708,1.28795-13.098392,5.300982-18.386023,5.536984-3.850198-2.637889-2.269551-18.704805-.855164-26.620118Z" transform="matrix(1.14608 0 0 1.150547 281.506593 419.997723)" fill="url(#epWKuzX542c140-fill)" stroke="rgba(0,0,0,0.06)"/><path d="M-13.140727,40.719191c24.471181-5.180881,93.80066-24.000733,120.463382-26.533926-2.200632,13.623283-6.824033,50.659047-6.459096,59.99054-27.63978,14.477738-104.896958,29.62947-129.241798,32.421492c1.128349-14.497841,11.618881-56.05037,15.237512-65.878106Z" transform="matrix(.139589 0 0 0.139589 284.756583 475.592607)" fill="url(#epWKuzX542c141-fill)" stroke-width="0"/><path d="M-13.350873,36.910085C11.120308,31.729204,112.566881,3.179755,139.229603,0.646562c-2.200632,13.623283-3.101799,66.616642-2.736862,75.948135-27.63978,14.477738-142.604212,36.208366-166.949052,39.000388c1.128349-14.497841,13.486807-68.857264,17.105438-78.685Z" transform="matrix(.139589 0 0 0.139589 283.35533 409.302859)" fill="url(#epWKuzX542c142-fill)" stroke-width="0"/><path d="M325.30541,324.364083c-7.488814,35.351791-15.790169,107.564584-14.910957,139.089588-1.415559,29.500375-3.024739,78.117387-2.201556,96.217219" fill="none" stroke="#09100d" stroke-width="1.2"/></g></g><g id="epWKuzX542c144" transform="translate(.883365-.441682)"><path d="M56.815956,-2.814844l.866766,34.880943c-6.612486,4.481962-13.148537,9.485843-16.826028,11.780252-17.098524,3.375688-43.373337,5.45221-49.297401-2.105337C-0.80492,28.29683,32.795019,6.639562,56.815956,-2.814844Z" transform="matrix(.646856 0 0 1.375137 233.136459 147.971634)" fill="#fff" stroke-width="0"/><path d="M17.821967,22.250517C30.253241,15.118292,48.975595,4.387678,55.745069,0.935622l.376561,56.33358c-21.108282-2.33647-62.150354-5.008316-82.939783-4.923525c10.203264-7.270825,32.573402-22.308193,44.64012-30.09516Z" transform="matrix(.173526 0 0 0.283645 260.199917 143.996355)" fill="#0b2a69" stroke-width="0"/><path d="M-6.404737,15.76219c11.881114-9.233098,157.820197,2.5742,165.78184,3.036623-1.130458,52.890482,3.91372,46.803979-6.415789,54.547352-20.949979-.178006-178.659173-17.121643-199.448602-17.036852c7.405227-7.668036,28.015833-32.760156,40.082551-40.547123Z" transform="matrix(.173526 0 0 0.283645 242.624824 173.119933)" fill="#0b2d72" stroke-width="0"/><path d="M235.028708,204.724511c16.853543,1.060612,20.350281,6.014092,24.495207,6.891055" transform="matrix(.99 0 0 0.28 2.653523 149.092868)" fill="none" stroke="#898c93" stroke-width="1.2"/></g></g><g id="epWKuzX542c149" transform="matrix(.999848-.017452 0.017452 0.999848-4.125375 3.969659)"><g id="epWKuzX542c150" transform="matrix(.127589 0.991827 0.991827-.127589-13.105304 14.899161)"><g transform="matrix(.877616 0.479364-.479364 0.877616 157.177483-102.014335)"><g><line x1="-10.198266" y1="2.622245" x2="-1.092931" y2="3.895147" transform="translate(297.01887 250.444862)" fill="#fbc6ac" stroke="#f4c2af" stroke-width="3"/><line x1="-7.289134" y1="1.768008" x2="0.643323" y2="3.241574" transform="translate(302.782955 252.479419)" fill="#fbc6ac" stroke="#f4c2af" stroke-width="3"/></g><g><line x1="-9.17467" y1="0.920763" x2="0.298757" y2="2.848771" transform="translate(295.214488 255.526904)" fill="#fbc6ac" stroke="#f4c2af" stroke-width="3"/><line x1="-9.537297" y1="0.590326" x2="0.808141" y2="2.373195" transform="translate(304.672439 257.704338)" fill="#fbc6ac" stroke="#f4c2af" stroke-width="3"/></g><g><line x1="-10.739924" y1="2.418922" x2="-2.097821" y2="4.273005" transform="translate(295.520492 257.380401)" fill="#fbc6ac" stroke="#f4c2af" stroke-width="3"/><line x1="-3.452759" y1="-1.941147" x2="4.586014" y2="-0.093872" transform="translate(296.517015 263.517762)" fill="#fbc6ac" stroke="#f4c2af" stroke-width="3"/></g><g><line x1="-30.742293" y1="-4.450101" x2="-22.711015" y2="-2.452026" transform="translate(315.373429 268.11488)" fill="#fbc6ac" stroke="#f4c2af" stroke-width="3"/><line x1="1.819682" y1="-2.047576" x2="6.772947" y2="-0.570293" transform="translate(290.444951 267.625206)" fill="#fbc6ac" stroke="#f4c2af" stroke-width="3"/></g><g><line x1="-10.387488" y1="4.465948" x2="-3.580404" y2="1.250741" transform="translate(292.52967 247.434801)" fill="#fbc6ac" stroke="#f4c2af" stroke-width="3"/><line x1="-7.807727" y1="0.854567" x2="-3.020056" y2="1.115557" transform="translate(295.790718 247.984143)" fill="#fbc6ac" stroke="#f4c2af" stroke-width="3"/></g><path d="M-6.675731,0.197082L8.700836,2.657283L0.272367,14.284089c-7.872105-.460828-11.934575-.762703-11.103434-1.488449L-6.675731,0.197082Z" transform="translate(284.402176 250.400797)" fill="#f4c2af" stroke="#f4c2af"/></g><path d="M-0.852898,-0.583618C2.05757,1.315457,11.189798,5.578298,13.572731,6.530833L4.434815,17.781683C0.262696,17.422939,-7.625359,7.003662,-8.350718,2.178729l7.49782-2.762347Z" transform="translate(272.593382 246.980675)" fill="#f4c2af" stroke="#f4c2af"/></g><path d="M-22.437689,-14.486844c3.107865-15.27092,20.432136-13.381002,34.58734.370435c2.885766,3.954506,11.189819,21.286858,19.201147,38.348737L17.677248,34.782539C4.709564,24.017187,-17.853314,2.60455,-22.437689,-14.486844Z" transform="translate(249.804366 223.198995)" fill="#fff" stroke-width="0"/><path d="M-55.5205,11.697588c7.722192-4.371658,197.802037,2.755048,205.76368,3.217471-.187729,1.832691,24.633153,21.678476,40.35637,48.060622-22.781829.487021-160.840746,12.834076-181.630175,12.918867C-22.6297,70.584763,-57.13408,18.889676,-55.5205,11.697588Z" transform="matrix(.173526 0 0 0.283645 238.696524 209.607617)" fill="#0b2d72" stroke-width="0"/></g><g transform="translate(0 0.000001)"><g><path d="M0,29.963278c14.449332-.418196,41.714325-.654524,60-.124267v29.92016c-18.915655.960808-41.256351.960808-59.597216,0L0,29.963278Z" transform="matrix(.385492 0 0 1 205.564592 281.901586)" fill="#e0e5f0" stroke-width="0"/><path d="M0,29.863688c14.449332-.321311,41.714325-.502888,60-.095478v22.988451c-18.915655.738214-41.256351.738214-59.597216,0L0,29.863688Z" transform="matrix(.385492 0 0-1 205.564592 342.547713)" fill="#e0e5f0" stroke-width="0"/></g><g transform="translate(.076529 1.118662)"><path d="M1.02088,29.10179c18.567343-.589653,39.634708-.693109,59.504994-.027045.526548.538509.258988,1.202613-.319297,1.655983-19.642112.908599-41.277526,1.152867-59.270877.170831-.489836-.304847-.404761-1.15752.08518-1.799769Z" transform="matrix(.385492 0 0-1 205.2525 317.738335)" fill="#a8abaf"/><path d="M205.697677,287.826499c5.808211,2.966601,15.871308,3.564202,22.792596.52472" transform="matrix(1 0 0 0.13 0 250.68924)" fill="none" stroke="#b8c0d1" stroke-width="1.2"/></g><path d="M1.375105,29.5338c16.932928-1.255246,41.709047-1.213856,58.624887,0c.815905,2.000001.83206,5.970065,0,7.940128-18.659503-.724346-40.236961-.551356-59.140571,0-.859429-1.723105-.859429-6.050086.515684-7.940128Z" transform="matrix(.385492 0 0-1 205.499673 371.915004)" fill="#e5eaf4" stroke="#ddd6d6"/><g transform="translate(.084869 0.143531)"><path d="M0.934091,51.141808c14.381522-.130007,41.257493-.164845,59.457354-.000001l-.048187,7.079452c-16.531404,1.917457-36.588163,1.698228-59.410281.006354l.001114-7.085805Z" transform="matrix(.385492 0 0-1 205.228749 339.549813)" fill="#3d4145" stroke-width="0"/><path d="M1.365655,29.416612c18.487882-.686552,38.626898-.793735,58.783839.102902.914801,1.681858,1.125907,4.964193.070371,6.56467C42.564296,34.39231,19.888447,34.529222,0.9357,36.051909c-.859429-1.43994-.945158-5.055852.429955-6.635297Z" transform="matrix(.385492 0 0-1 205.318337 317.790169)" fill="#292c2e"/><path d="M205.63373,248.971839c5.764432,10.868076,17.406322,9.781271,22.663915-.483978" transform="matrix(1 0 0 0.13 0.118818 249.144602)" fill="none" stroke="#b8c0d1" stroke-width="1.2"/><path d="M205.913128,237.427785c7.609063-13.569721,15.929063-14.185108,22.18-.000007" transform="matrix(1 0 0 0.13-.048682 250.479602)" fill="none" stroke="#b8c0d1" stroke-width="1.2"/></g><g transform="translate(.000001 0.000001)"><path d="M4.390957,-12.161869c14.237637,5.446426,47.293545,11.010632,64.908955,11.489355-1.148833,12.686164-1.723248,12.446802-.382942,30.159548-23.74251,3.111709-59.547744-1.675519-67.015147-9.335091-3.063546-21.303187-1.340302-20.345736,2.489134-32.313812Z" transform="matrix(.104454 0 0 0.104454 204.92023 282.420172)" fill="#d2dbed" stroke-width="0"/><path d="M3.592577,20.395753c6.510032,4.02091,50.165618,8.807707,67.206619,6.892987c4.000815-2.031625,3.255021,29.103729,1.3403,32.741685-26.423115,3.637965-58.590383-.765886-66.632326-6.416591C1.294915,42.606487,1.294918,30.735235,3.592577,20.395753Z" transform="matrix(.104454 0 0 0.104454 204.721922 282.416397)" fill="#929aaa" stroke-width="0"/><path d="M4.608172,4.900033C9.673149,7.324229,19.273477,8.598057,24.667684,8.84115c-.351796,6.441982-.527694,6.320434-.117265,15.314893-7.270453,1.580113-18.234766-.850822-20.521441-4.74032-.865872-9.602359-.482929-7.879114.579194-14.51569Z" transform="matrix(.104454 0 0 0.104454 205.347144 283.747995)" fill="#a3a9b5" stroke-width="0"/><path d="M204.382127,283.89924c1.28-6.000004,4.16-3.538463,4.32,1.538461" transform="matrix(.25 0 0 0.13 155.035427 248.503936)" fill="none" stroke="#586172" stroke-width="1.2"/><path d="M206.655258,285.425077c.029242-1.846968-.637035.798345-.2,1.88" transform="matrix(.25 0 0 0.25 154.921443 214.198808)" fill="none" stroke="#586172" stroke-width="1.2"/></g><path d="M0.510406,6.348325C6.852281,7.495623,18.960838,9.115754,24.444387,9.220404c-.351796,6.441982.163987,4.025625.574416,13.020084-8.435736-.007317-20.870431-2.297661-24.316925-2.680606-1.723247-6.31857-1.531775-6.510042-.191472-13.211557Z" transform="matrix(-.104454 0 0 0.104454 224.192845 282.366373)" fill="#42464b" stroke-width="0"/><path d="M0.510406,6.348325C6.852281,7.495623,18.960838,9.115754,24.444387,9.220404c-.351796,6.441982.163987,4.025625.574416,13.020084-8.435736-.007317-20.687575-1.817689-24.134069-2.200634-1.723247-6.31857-1.714631-6.990014-.374328-13.691529Z" transform="matrix(-.104454 0 0-.104454 222.359899 282.888774)" fill="rgba(168,179,122,0.94)" stroke-width="0"/><g transform="translate(.000001 0)"><path d="M232.756276,288.794864c2.488426,4.484954-7.92824-1.938657-8.15375-3.786296" transform="translate(-1.531667-1.798759)" fill="none" stroke="#6a6f7b" stroke-width="1.2"/><path d="M232.867758,290.064679c1.8-1.2-8.828229-9.167708-8.5-5.94" transform="translate(-1.531667-1.798759)" fill="none" stroke="#6a6f7b" stroke-width="1.2"/></g></g><rect id="epWKuzX542c195" style="mix-blend-mode:multiply" width="600" height="300" rx="0" ry="0" transform="matrix(1 0 0 1 0 300)" opacity="0.8" fill="url(#epWKuzX542c195-fill)" stroke-width="0"/><g id="epWKuzX542c196" transform="matrix(1.714286 0 0 1.714286 308.571429 480)"><path id="epWKuzX542c197" d="M100.296,3.59097h1.86105v8.05706h-1.86105v-8.05706Zm.93793-1.32776c-.33752,0-.62035-.10561-.84864-.31684-.22829-.22129-.34251-.49288-.34251-.81477s.11422-.58843.34251-.79967c.22829-.22129.51112-.33193.84864-.33193s.62035.10562.84864.31685c.22829.20117.34251.45766.34251.76949c0,.33195-.11422.61358-.34251.84494-.21832.22129-.5013.33193-.84864.33193Zm17.50762,4.76743v4.61696h-1.86105v-4.37556c0-.70411-.16378-1.23218-.49133-1.58425-.32755-.3621-.7941-.54316-1.39949-.54316-.68501,0-1.2259.21123-1.62294.63369-.39705.41241-.59557,1.0109-.59557,1.7955v4.07379h-1.86105v-11.19538h1.86105v4.07379c.30776-.33195.68486-.58341,1.13162-.75441.45658-.18106.96271-.27159,1.51855-.27159c1.00259,0,1.80651.29673,2.41206.8902.60539.59346.90817,1.4736.90817,2.64042h-.00002ZM107.5923,11.7549c-.87342,0-1.54846-.23136-2.02483-.69407-.47652-.46269-.71478-1.13663-.71478-2.02181v-3.87763h-1.3102v-1.50882h1.3102v-1.84075h1.8612v1.84075h2.12908v1.50882h-2.12908v3.83237c0,.39231.09428.69407.28283.9053.18855.20117.46156.30176.81888.30176.41684,0,.76433-.11065,1.04218-.33195l.52109,1.34285c-.21832.18106-.48634.31685-.80392.40738-.30776.09053-.63531.13579-.98265.13579v.00001Zm-13.2957-.10591L92.24186,6.09656L90.1575,11.64899h-1.78672L85.45259,3.59193h1.75696l2.09931,5.94472l2.18861-5.94472h1.56327l2.14403,5.97489l2.15884-5.97489h1.65271l-2.93315,8.05706h-1.78657ZM80.71172,7.66404c0,.13076-.00982.31685-.02976.55826h-6.23841c.10923.59347.39221,1.06623.84879,1.41829.4664.34199,1.04218.51299,1.72704.51299.87342,0,1.59303-.2917,2.15884-.87511l.99761,1.16179c-.35731.43252-.80906.75943-1.35492.98072s-1.16138.33195-1.84625.33195c-.87342,0-1.64274-.17603-2.30766-.52808-.66507-.35206-1.18118-.83991-1.54846-1.46355-.35731-.63369-.53605-1.34787-.53605-2.14251c0-.78458.17375-1.48869.52109-2.11234.35731-.63371.84864-1.12657,1.47398-1.47863s1.33015-.52808,2.11427-.52808c.77415,0,1.464.17603,2.06955.52808.61537.34199,1.09189.82985,1.42926,1.46354.34749.62364.52109,1.34788.52109,2.1727l-.00001-.00002ZM76.69183,5.00853c-.59557,0-1.1017.18106-1.5187.54318-.40687.35206-.6551.82481-.74439,1.41829h4.51122c-.07932-.58341-.32256-1.05617-.72943-1.41829-.40702-.36212-.9133-.54318-1.5187-.54318ZM69.01645,11.6476v-1.04108c-.30776.38223-.68985.66889-1.14643.86002-.44676.19112-.94291.28668-1.48893.28668-.76433,0-1.45403-.17101-2.06955-.51301-.60539-.34199-1.08191-.82481-1.42925-1.44846-.34749-.63369-.52109-1.35793-.52109-2.17268s.17359-1.53397.52109-2.1576c.34734-.62364.82386-1.10646,1.42925-1.44846C64.92706,3.671,65.61676,3.5,66.38109,3.5c.52607,0,1.00743.09053,1.44421.27159s.8089.45265,1.11666.81477v-4.13414h1.86105v11.19538h-1.78656Zm-.35731-2.70078c.20834-.38223.31259-.82481.31259-1.32774s-.10425-.94553-.31259-1.32776c-.2085-.38223-.49133-.67394-.84864-.87511-.35746-.21125-.75935-.31685-1.2061-.31685-.4466,0-.84864.10561-1.20595.31685-.35731.20117-.64014.49288-.84864.87511s-.31259.82481-.31259,1.32776.1041.94551.31259,1.32774.49132.67897.84864.8902c.35731.20118.75935.30176,1.20595.30176.44676,0,.84864-.10058,1.2061-.30176.35731-.21123.64014-.50796.84864-.8902ZM56.93698,3.49973c1.1712,0,2.06456.28667,2.67993.86002.62534.56329.93793,1.41829.93793,2.56499v4.72257h-1.75681v-.98072c-.22829.35206-.55584.62363-.98265.81475-.41699.18106-.92312.27159-1.5187.27159s-1.11666-.10059-1.56327-.30176c-.44671-.21125-.79411-.49791-1.04225-.86003-.23823-.37217-.35733-.78961-.35733-1.25231c0-.72424.26304-1.30262.7891-1.73514.536-.44259,1.37467-.66388,2.51626-.66388h2.05459v-.1207c0-.56329-.16876-.99581-.50628-1.29757-.32755-.30178-.81888-.45265-1.47398-.45265-.4466,0-.88837.0704-1.32501.21123-.42681.14083-.78911.33696-1.08691.58844l-.72956-1.37302c.41689-.32189.91812-.56832,1.50373-.73932s1.20595-.2565,1.8612-.2565l.00001.00001Zm-.25322,6.88017c.46655,0,.8784-.10562,1.23587-.31685.36714-.22129.62519-.53312.77415-.93545v-.93547h-1.92073c-1.07194,0-1.60784.35709-1.60784,1.07126c0,.34199.13386.61357.40188.81475s.6403.30176,1.11666.30176h.00001Zm-10.69116.06065h-.86354l-3.42441-5.7033v6.91036h-1.8462v-10.56169h1.59309l4.13907,7.00089l4.06463-7.00089h1.59309l.01488,10.56169h-1.8313l-.0149-7.00089-3.42441,5.79383Zm63.34121,18.8993v15.15h-3.372v-1.962c-.57764.71189-1.32435,1.2678-2.172,1.617-.90563.36793-1.87555.55151-2.853.54-1.37977.02378-2.74245-.30785-3.957-.963-1.13745-.62625-2.07375-1.56255-2.7-2.7-1.30391-2.56373-1.30391-5.59627,0-8.16.6281-1.13606,1.56394-2.0719,2.7-2.7c1.21546-.65275,2.57751-.98423,3.957-.963.92501-.00857,1.84259.16578,2.7.513.8172.33509,1.54983.84741,2.145,1.5v-.762c0-.28643.11378-.56114.31633-.76367s.47724-.31633.76367-.31633l2.472-.03Zm-4.767,11.01c1.70241-1.9736,1.70241-4.8964,0-6.87-1.79985-1.74394-4.65915-1.74394-6.459,0-1.68467,1.98016-1.68467,4.88984,0,6.87.84101.87157,2.01145,1.34672,3.222,1.308c1.21374.03854,2.38799-.43377,3.237-1.302v-.006Zm17.94,3.324c-.4506.35546-.96927.61479-1.524.762-.61408.17233-1.2492.25816-1.887.255-1.41013.09088-2.79902-.37927-3.864-1.308-.9622-1.0234-1.45181-2.403-1.35-3.804v-13.59h2.469c.28643,0,.56114.11378.76367.31633s.31633.47724.31633.76367v2.379h4.047v2.853h-4.047v7.2c-.04376.61441.15433,1.2216.552,1.692.40613.41048.96838.62774,1.545.597.22613.00135.45196-.01672.675-.054.80958-.16952,1.6251.26156,1.941,1.026l.363.912Zm5.079.027c-1.20043-.63362-2.19844-1.59212-2.88-2.766-1.3796-2.49392-1.3796-5.52208,0-8.016.68541-1.16705,1.68279-2.11975,2.88-2.751c2.61457-1.32565,5.70443-1.32565,8.319,0c1.19702.63151,2.19433,1.58416,2.88,2.751c1.3796,2.49392,1.3796,5.52208,0,8.016-.68182,1.17368-1.67976,2.13211-2.88,2.766-2.61457,1.32565-5.70443,1.32565-8.319,0Zm7.392-3.369c1.70241-1.9736,1.70241-4.8964,0-6.87-1.79985-1.74394-4.65915-1.74394-6.459,0-1.68467,1.98016-1.68467,4.88984,0,6.87.84101.87157,2.01145,1.34672,3.222,1.308c1.21059.04404,2.38438-.42048,3.237-1.281v-.027Zm17.022-11.16v3.372c-.27077-.05406-.54592-.08318-.822-.087-1.19439-.06706-2.36247.36798-3.222,1.2-.83467.95959-1.25439,2.2112-1.167,3.48v7.353h-3.552v-15.15h2.298c.28643,0,.56113.11379.76367.31633s.31633.47724.31633.76367v1.134c1.014-1.588,2.809-2.382,5.385-2.382Zm-107.022,15.042c-.99952-.24447-1.95011-.65737-2.811-1.221l.621-1.233c.3744-.7399,1.2508-1.07278,2.022-.768.37389.15524.75654.28847,1.146.399.91807.26884,1.86939.4072,2.826.411c2.118,0,3.179-.557,3.183-1.671.01432-.51063-.31898-.96614-.81-1.107-.84397-.28199-1.7129-.4829-2.595-.6-1.03337-.14877-2.05419-.3744-3.054-.675-.77526-.24876-1.47221-.69547-2.022-1.296-.61143-.71083-.9214-1.63215-.864-2.568-.02956-1.38298.6493-2.68527,1.8-3.453c1.44674-.93234,3.1502-1.38576,4.869-1.296c1.05397.00022,2.10457.11896,3.132.354.90209.18897,1.76874.51902,2.568.978l-.675,1.296c-.363.73034-1.21602,1.07232-1.983.795-.9848-.3605-2.02631-.54137-3.075-.534-.81824-.04818-1.63519.11397-2.373.471-.48302.22293-.79719.70118-.81,1.233-.01041.54748.34149,1.03623.864,1.2.87464.31646,1.77934.54264,2.7.675c1.00825.15143,2.00395.37704,2.979.675.77042.2345,1.46702.66444,2.022,1.248.59601.69214.89656,1.59055.837,2.502.02092,1.37985-.67962,2.67062-1.848,3.405-1.50499.92728-3.25673,1.37412-5.022,1.281-1.22607-.00259-2.44614-.17112-3.627-.501Zm44.883-14.874v12.858c0,5.336-2.724,8.004-8.172,8.004-1.40084.00811-2.79608-.17765-4.146-.552-1.17835-.30549-2.28055-.85199-3.237-1.605l1.026-1.713c.30567-.49262.95204-.6455,1.446-.342.51805.29338,1.06493.53264,1.632.714.99571.32459,2.03673.48864,3.084.486c1.664,0,2.884-.378,3.66-1.134.84612-.94702,1.26781-2.19906,1.167-3.465v-.795c-.61114.66419-1.36796,1.17763-2.211,1.5-.91436.34924-1.88627.52327-2.865.513-1.35633.0185-2.69615-.29893-3.9-.924-1.14224-.59206-2.09694-1.49066-2.757-2.595-.68212-1.15978-1.02996-2.48573-1.005-3.831-.02691-1.34077.32116-2.66242,1.005-3.816.65985-1.09557,1.61266-1.98501,2.751-2.568c1.20751-.61258,2.54617-.9215,3.9-.9c1.02537-.01399,2.04386.16934,3,.54.88145.34534,1.65934.91145,2.259,1.644v-.936c0-.28643.11379-.56114.31633-.76367s.47724-.31633.76367-.31633l2.283-.003Zm-4.782,10.263c.86632-.80774,1.34014-1.95125,1.299-3.135.03647-1.17094-.43625-2.30022-1.296-3.096-1.9293-1.58787-4.7127-1.58787-6.642,0-.85642.7974-1.32577,1.92647-1.287,3.096-.04421,1.18189.4251,2.3251,1.287,3.135c1.92186,1.60535,4.71714,1.60535,6.639,0Zm-12.057-10.278l-5.892,13.743c-.36888.86087-1.21443,1.41985-2.151,1.422h-1.902l5.763-13.404.3-.675c.28294-.65223.92704-1.07338,1.638-1.071l2.244-.015Zm-10.785,13.263l-5.889-13.236h2.511c.71819-.00121,1.36666.42953,1.644,1.092l3.492,8.046-1.758,4.098Z" opacity="0.7" clip-rule="evenodd" fill="#fff" fill-rule="evenodd"/><g id="epWKuzX542c198" transform="matrix(.3 0 0 0.3-18.12243-25.905895)" opacity="0.7" mask="url(#epWKuzX542c200)"><path id="epWKuzX542c199" d="M129.5,243.58426c-8.76,2.18-20.08,1.79-37.33-19.63-2.35828-2.9281-4.38181-6.36293-5.93416-10.02849c3.00814.97918,6.21933,1.50849,9.55416,1.50849c17.03246,0,30.84-13.80754,30.84-30.84c0-5.42003-1.39819-10.5135-3.85355-14.93939c22.54068-3.14789,48.24701-1.18662,56.01355,6.19939c12.32,11.73-14.11,59.03-49.29,67.73Z" fill="#fff"/><mask id="epWKuzX542c200" mask-type="alpha" x="-150%" y="-150%" height="400%" width="400%"><path id="epWKuzX542c201" d="M78.37454,207.03926c0-31.45994,25.50332-56.96327,56.96327-56.96327s56.96327,25.50332,56.96327,56.96327-25.50332,56.96327-56.96327,56.96327-56.96327-25.50332-56.96327-56.96327Zm89.23546-4.715c-.16775-.93858-1.05962-1.56734-2-1.41h-.06c-4.15414.71597-8.30501-1.28258-10.33588-4.97651s-1.49439-8.26953,1.33588-11.39349c.33036-.3301.51598-.77798.51598-1.245s-.18561-.9149-.51598-1.245l-.11-.1c-2.70671-2.31865-5.78705-4.16144-9.11-5.45-.43613-.17299-.92328-.16468-1.35326.02308s-.76719.53944-.93674.97692v.06c-1.40364,3.98681-5.18789,6.63916-9.41438,6.59848s-7.95898-2.76539-9.28562-6.77848c-.13404-.44903-.44162-.82607-.85458-1.04757s-.8972-.26916-1.34542-.13243h-.11c-3.26392,1.21388-6.31249,2.94242-9.03,5.12-.37331.28196-.619.70095-.6828,1.16441s.05956.93325.3428,1.30559l.1.12c2.68294,3.2243,3.03751,7.79124.8844,11.39101s-6.34454,5.44763-10.4544,4.60899c-.45624-.10445-.9353-.02286-1.33126.22672s-.67619.6466-.77874,1.10328v.09c-.55386,3.43784-.55386,6.94217,0,10.38.06433.46505.31181.88512.68739,1.16681s.84815.40164,1.31261.33319h.11c4.15414-.71597,8.30501,1.28258,10.33588,4.97651s1.49439,8.26953-1.33588,11.39349c-.33036.3301-.51598.77798-.51598,1.245s.18561.9149.51598,1.245l.11.1c2.70914,2.30768,5.7893,4.14023,9.11,5.42.43613.17299.92328.16468,1.35326-.02308s.76719-.53944.93674-.97692v-.06c1.40815-3.97311,5.18194-6.61524,9.39704-6.57914s7.94308,2.7425,9.28296,6.73914c.13404.44903.44162.82607.85458,1.04757s.8972.26916,1.34542.13243h.11c3.30375-1.22537,6.38706-2.97809,9.13-5.19.37164-.28659.61343-.70974.67164-1.17542s-.07198-.93533-.36164-1.30458l-.1-.12c-2.83001-3.19588-3.28744-7.84789-1.13412-11.53378s6.43037-5.57199,10.60412-4.67622c.93041.23341,1.87421-.33019,2.11-1.26v-.09c.5347-3.37898.5347-6.82102,0-10.2Zm-41.67,4.69c0-5.197,4.213-9.41,9.41-9.41s9.41,4.213,9.41,9.41-4.213,9.41-9.41,9.41-9.41-4.213-9.41-9.41Z" fill="#d2dbed" stroke-width="0"/></mask></g><path id="epWKuzX542c202" d="M116.33,114.77l-3.64-2.18c-1.023263-.593162-1.652267-1.687247-1.65-2.87v-2c-.002267-1.182753.626737-2.276838,1.65-2.87l3.64-2.18c.762973-.435835,1.321342-1.157154,1.552062-2.005003s.114855-1.752643-.322062-2.514997v0l-1.74-3c-.935215-1.566004-2.961067-2.080293-4.53-1.15v0l-3.68,2.18c-1.024118.591275-2.285882.591275-3.31,0l-1.7-1c-1.023263-.593162-1.652267-1.687247-1.65-2.87v-4.38c0-.877867-.348731-1.719778-.969477-2.340523s-1.462656-.969477-2.340523-.969477h-3.47c-.877867,0-1.719778.348731-2.340523.969477s-.969477,1.462656-.969477,2.340523s0,.06,0,.09v4.35c.002267,1.182753-.626737,2.276838-1.65,2.87l-1.68,1c-1.024118.591275-2.285882.591275-3.31,0L80.56,94c-.767143-.448916-1.682599-.570435-2.540292-.337203s-1.585543.801616-2.019708,1.577203v0l-1.74,3c-.443418.7584-.567152,1.661967-.343945,2.511654s.775044,1.575787,1.533945,2.018346v0L79.1,105c1.023263.593162,1.652267,1.687247,1.65,2.87v2c.002267,1.182753-.626737,2.276838-1.65,2.87l-3.61,2.18c-1.578036.917936-2.114924,2.940216-1.2,4.52v0l1.74,3c.917936,1.578036,2.940216,2.114924,4.52,1.2v0l3.66-2.18c1.024118-.591275,2.285882-.591275,3.31,0l1.68,1c1.023263.593162,1.652267,1.687247,1.65,2.87v3.67c0,.877867.348731,1.719778.969477,2.340523s1.462656.969477,2.340523.969477h3.46c.877867,0,1.719778-.348731,2.340523-.969477s.969477-1.462656.969477-2.340523v0-3.77c-.002267-1.182753.626737-2.276838,1.65-2.87l1.7-1c1.024118-.591275,2.285882-.591275,3.31,0l3.66,2.18c1.5824.913239,3.605483.371662,4.52-1.21v0l1.74-3c.938839-1.568495.428452-3.601089-1.14-4.54Zm-20.49.91c-3.865993,0-7-3.134007-7-7s3.134007-7,7-7s7,3.134007,7,7v0c0,3.865993-3.134007,7-7,7v0Z" transform="matrix(.3 0 0 0.3-17.650844-2.6395)" opacity="0.7" fill="#fff"/></g>
<script><![CDATA[
!function(t,e){"object"==typeof exports&&"undefined"!=typeof module?module.exports=e():"function"==typeof __SVGATOR_DEFINE__&&__SVGATOR_DEFINE__.amd?__SVGATOR_DEFINE__(e):((t="undefined"!=typeof globalThis?globalThis:t||self).__SVGATOR_PLAYER__=t.__SVGATOR_PLAYER__||{},t.__SVGATOR_PLAYER__["5c7f360c"]=e())}(this,(function(){"use strict";const t=n(Math.pow(10,-6)),e=n(Math.pow(10,-2));function n(t,e=6){return function(t,e,n){if(Number.isInteger(t))return t;const r=Math.pow(10,e);return Math[n]((+t+Number.EPSILON)*r)/r}(t,e,"round")}function r(e,n,r=t){return Math.abs(e-n)<r}n(Math.pow(10,-4));const i=Math.PI/180;function s(t){return t*i}function o(t){return t/i}function u(t){return"number"!=typeof t&&(t=Number(t)),isNaN(t)||!isFinite(t)?0:t}let l={iD:!1};function a(t){return`${t}`.replace(/['"]/g,"")}function c(t,e="px"){return t.endsWith(e)?t:`${t}${e}`}function f(t=""){return l.iD?t:void 0}function h(t){const e=["^","\\s*","(matrix\\()","(?<a>-?[0-9]*\\.?[0-9]+)","\\s*",",?","\\s*","(?<b>-?[0-9]*\\.?[0-9]+)","\\s*",",?","\\s*","(?<c>-?[0-9]*\\.?[0-9]+)","\\s*",",?","\\s*","(?<d>-?[0-9]*\\.?[0-9]+)","\\s*",",?","\\s*","(?<e>-?[0-9]*\\.?[0-9]+)","\\s*",",?","\\s*","(?<f>-?[0-9]*\\.?[0-9]+)","\\)"].join(""),n=t.match(new RegExp(e,"i"));if(n)return[u(n.groups.a),u(n.groups.b),u(n.groups.c),u(n.groups.d),u(n.groups.e),u(n.groups.f)]}function d(t,e="inline"){return t&&t!==e?(t=a(t))===e?f(e):t:f(e)}function g(t,e="1px"){if(!t||t===e)return f(e);if(t.endsWith("px")||t.endsWith("%"))return t;const n=c(t=`${u(t)}`);return n===e?f(e):n}function p(t,e="none"){return t&&t!==e?(t=a(t))===e?f(e):t.startsWith("url(#")?t:function(t){const e=["^","\\s*","url\\(","#","(?<maskId>[a-zA-Z0-9\\-_]+)","\\)"].join(""),n=t.match(new RegExp(e,"i"));if(n)return`url(#${n.groups.maskId})`}(t):f(e)}function y(t,e="rgb(0, 0, 0)"){if(!t||t===e)return f(e);if((t=a(t))===e)return f(e);if(t.startsWith("rgb"))return t;const n=function(t){const e=["^","\\s*","#","(?<red>[0-9A-Z]{1,2})","(?<green>[0-9A-Z]{1,2})","(?<blue>[0-9A-Z]{1,2})"].join(""),n=t.match(new RegExp(e,"i"));if(!n)return t;const r=t=>parseInt(t.length>1?t:`${t}${t}`,16);return`rgb(${r(n.groups.red)}, ${r(n.groups.green)}, ${r(n.groups.blue)})`}(t);return n===e?f(e):n}function m(t,e="1"){return t&&t!==e?(t=`${n(u(t),3)}`)===e?f(e):t:f(e)}let b={};const v={fill:"none",stroke:"none",opacity:"0.01",transform:"matrix(0.001 0 0 0.001 -10000 -10000)"};function w({element:t,tagType:e="path",property:n="d",attributeValue:r}){return b[r]||(b[r]=function({element:t,tagType:e="path",property:n="d",attributeValue:r}){const i=t.ownerSVGElement,s=document.createElementNS(i.namespaceURI,e);s.setAttributeNS(null,n,r);for(const t in v)s.setAttributeNS(null,t,v[t]);i.appendChild(s);const o=getComputedStyle(s)[n];return s.remove(),o}({element:t,tagType:e,property:n,attributeValue:r})),b[r]}const x=()=>{b={}};"object"==typeof window&&(window.removeEventListener("resize",x),window.addEventListener("resize",x));const A={include:(t,e)=>["path"].includes(e),formatter:t=>function(t,e=""){return t&&t!==e?(t=a(t))===e?f(e):t.startsWith("path(")?t:`path('${t}')`:f(e)}(t)},_={include:(t,e)=>["rect","mask"].includes(e),formatter:(t,e,n)=>g(t,function(t,e){var n;return(null===(n={mask:{x:"-150%",y:"-150%",width:"400%",height:"400%"}}[e])||void 0===n?void 0:n[t])||(["x","y"].includes(t)?"0px":"100%")}(e,n))},S=Object.freeze({d:A,display:t=>d(t),height:_,fill:t=>y(t),"fill-opacity":t=>m(t),filter:t=>d(t,"none"),mask:t=>p(t),opacity:t=>m(t),stroke:t=>y(t,"none"),"stroke-opacity":t=>m(t),"stroke-width":t=>g(t),transform:t=>function(t,e="none"){if(!t||t===e)return f(e);const n=h(t);return n?`matrix(${n.join(", ")})`:t}(t),"transform-origin":t=>function(t,e="0px 0px"){if(!t||t===e)return f(e);const n=["^","\\s*","(?<x>[0-9]+)","(px)?","\\s*",",","\\s*","(?<y>[0-9]+)","(px)?"].join(""),r=t.match(new RegExp(n,"i"));if(!r)return t;let i=`${u(r.groups.x)}`;i=c(i);let s=`${u(r.groups.y)}`;s=c(s);const o=`${i} ${s}`;return o===e?f(e):o}(t),visibility:t=>d(t,"visible"),width:_,x:_,y:_}),k=Object.keys(S),E=e;function M(t,e,n,i,s=window){var o,u;const l=t.getAttribute(e),a="transform"===e?"none":"",c=s.safari&&!s.chrome&&(null===(o=i.getPropertyValue)||void 0===o?void 0:o.call(i,e))===a||"mask"===n?l:null===(u=i.getPropertyValue)||void 0===u?void 0:u.call(i,e);if(l&&c){if(l===c)return l;switch(e){case"transform":return function(t,e){const n=h(t),i=h(e);if((null==n?void 0:n.length)===(null==i?void 0:i.length)){for(let t=0,e=n.length;t<e;t++)if(n[t]!==i[t]&&(s=i[t],!r(((o=n[t])-s)/(o||1)*100,0,E)))return;var s,o;return t}}(l,c);case"d":return function(t,e,n){return w({element:t,attributeValue:e})===n?e:void 0}(t,l,c);default:return c}}}function I(t,e,n,r){var i,s,o,u;const l="transform"===e||["mask","path"].includes(n)&&["x","y","width","height","d"].includes(e);return r&&l?M(t,e,n,r):(null===(i=r.getPropertyValue)||void 0===i?void 0:i.call(r,e))??(null===(s=t.attrs)||void 0===s||null===(o=s.style)||void 0===o?void 0:o[e])??(null===(u=t.attrs)||void 0===u?void 0:u[e])}function N(t,e,n=!1){l.iD=n;const r="undefined"!=typeof window&&getComputedStyle(t),i={};for(let l=0,a=k.length;l<a;l++){var s,o,u;const a=k[l],c=t.type||t.nodeName;if(!1===(null===(s=(o=S[a]).include)||void 0===s?void 0:s.call(o,a,c)))continue;const f=S[a].formatter||S[a];if(null!=e&&null!==(u=e[t.id])&&void 0!==u&&u[a])continue;const h=I(t,a,c,r);if(null==h&&!n)continue;const d=f.call(this,h,a,c);d&&(i[a]=d)}return i}function j(t){var e,n;if(null==t||null===(e=t.wD)||void 0===e||!e.length)return;this.h=t.wD.shift();const r=null===(n=t.rootId)||void 0===n?void 0:n.slice(0,-1);this.wIs=t.wD.map((t=>`${r}${t}`))}function B(t){const e=new j(t),n=t.svg,r=e.wIs,i=t.originalAnimations[0].elements,s=e.h;function o(t,e,s){var u;if(e[t])return;const l=n.querySelector("#"+t),a=null==l||null===(u=l.parentElement)||void 0===u?void 0:u.id;if(l&&a){if(r.includes(a))return e[a]||o(a,e,s),e[a].children??=[],e[t]=N(l,i),void e[a].children.push(e[t]);e[t]=N(l,i),s.push(e[t])}}async function u(){const t=function(){let t=[],e={};for(let n=0,i=r.length;n<i;n++)o(r[n],e,t);return t}();return await async function(t){var e,n;const r=JSON.stringify(t),i=(new TextEncoder).encode(r),o=await(null===(e=window.crypto)||void 0===e||null===(n=e.subtle)||void 0===n?void 0:n.digest("SHA-256",i));return o&&Array.from(new Uint8Array(o)).map((t=>t.toString(16).padStart(2,"0"))).join("")||s}(t)}this.vH=async function(){await u()!==s&&requestAnimationFrame((()=>t.stop()))}}function O(t){let e=0,n=0;const r=new B(t);this.cF=function(i,s){return t.wD?(e++,function(t){return!(t-n<300)&&(t-n>=500||e>=3)}(i)?(e=0,n=i,window.requestAnimationFrame((()=>r.vH())),s()):s()):s()}}function T(t){return t}function F(t,e,n){const r=1-n;return 3*n*r*(t*r+e*n)+n*n*n}function V(t=0,e=0,n=1,i=1){return t<0||t>1||n<0||n>1?null:r(t,e)&&r(n,i)?T:s=>{if(s<=0)return t>0?s*e/t:0===e&&n>0?s*i/n:0;if(s>=1)return n<1?1+(s-1)*(i-1)/(n-1):1===n&&t<1?1+(s-1)*(e-1)/(t-1):1;let o,u=0,l=1;for(;u<l;){o=(u+l)/2;const e=F(t,n,o);if(r(s,e))break;e<s?u=o:l=o}return F(e,i,o)}}function R(){return 1}function C(t){return 1===t?1:0}function P(t=1,e=0){if(1===t){if(0===e)return C;if(1===e)return R}const n=1/t;return t=>t>=1?1:(t+=e*n)-t%n}Number.isInteger||(Number.isInteger=function(t){return"number"==typeof t&&isFinite(t)&&Math.floor(t)===t}),Number.EPSILON||(Number.EPSILON=2220446049250313e-31);const $=Math.sin,D=Math.cos,L=Math.acos,q=Math.asin,z=Math.tan,G=Math.atan2,W=Math.sqrt;function Y(t,e){return{a:t[0]*e[0]+t[2]*e[1],b:t[1]*e[0]+t[3]*e[1],c:t[0]*e[2]+t[2]*e[3],d:t[1]*e[2]+t[3]*e[3],tx:t[0]*e[4]+t[2]*e[5]+t[4],ty:t[1]*e[4]+t[3]*e[5]+t[5]}}function U(t,e,n){return t>=.5?n:e}function H(t,e,n){return 0===t||e===n?e:t*(n-e)+e}function Z(t,e,n){const r=H(t,e,n);return r<=0?0:r}function J(t,e,n){const r=H(t,e,n);return r<=0?0:r>=1?1:r}function Q(t,e,n){return 0===t?e:1===t?n:{x:H(t,e.x,n.x),y:H(t,e.y,n.y)}}function X(t,e,n){return 0===t?e:1===t?n:{x:Z(t,e.x,n.x),y:Z(t,e.y,n.y)}}function K(t,e,n){const r=function(t,e,n){return Math.round(H(t,e,n))}(t,e,n);return r<=0?0:r>=255?255:r}function tt(t,e,n){return 0===t?e:1===t?n:{r:K(t,e.r,n.r),g:K(t,e.g,n.g),b:K(t,e.b,n.b),a:H(t,null==e.a?1:e.a,null==n.a?1:n.a)}}function et(t,e,n){let r=e.length;if(r!==n.length)return U(t,e,n);let i=new Array(r);for(let s=0;s<r;s++)i[s]=H(t,e[s],n[s]);return i}function nt(t,e){const n=[];for(let r=0;r<t;r++)n.push(e);return n}function rt(t,e){if(--e<=0)return t;const n=(t=Object.assign([],t)).length;do{for(let e=0;e<n;e++)t.push(t[e])}while(--e>0);return t}class it{constructor(t){this.list=t,this.length=t.length}setAttribute(t,e){const n=this.list;for(let r=0;r<this.length;r++)n[r].setAttribute(t,e)}removeAttribute(t){const e=this.list;for(let n=0;n<this.length;n++)e[n].removeAttribute(t)}style(t,e){const n=this.list;for(let r=0;r<this.length;r++)n[r].style[t]=e}}const st=/-./g,ot=(t,e)=>e.toUpperCase();let ut;function lt(t){return"function"==typeof t?t:U}function at(t){return t?"function"==typeof t?t:Array.isArray(t)?function(t,e=T){if(!Array.isArray(t))return e;switch(t.length){case 1:return P(t[0])||e;case 2:return P(t[0],t[1])||e;case 4:return V(t[0],t[1],t[2],t[3])||e}return e}(t,null):function(t,e,n=T){switch(t){case"linear":return T;case"steps":return P(e.steps||1,e.jump||0)||n;case"bezier":case"cubic-bezier":return V(e.x1||0,e.y1||0,e.x2||0,e.y2||0)||n}return n}(t.type,t.value,null):null}function ct(t,e,n,r=!1){const i=e.length-1;if(t<=e[0].t)return r?[0,0,e[0].v]:e[0].v;if(t>=e[i].t)return r?[i,1,e[i].v]:e[i].v;let s,o=e[0],u=null;for(s=1;s<=i;s++){if(!(t>e[s].t)){u=e[s];break}o=e[s]}return null==u?r?[i,1,e[i].v]:e[i].v:o.t===u.t?r?[s,1,u.v]:u.v:(t=(t-o.t)/(u.t-o.t),o.e&&(t=o.e(t)),r?[s,t,n(t,o.v,u.v)]:n(t,o.v,u.v))}function ft(t,e,n=null){return t&&t.length?"function"!=typeof e?null:("function"!=typeof n&&(n=null),r=>{let i=ct(r,t,e);return null!=i&&n&&(i=n(i)),i}):null}function ht(t,e){return t.t-e.t}function dt(t,e,n,r,i){const s="@"===n[0],o="#"===n[0];let u=ut[n],l=U;var a;switch(s?(a=n.substr(1),n=a.replace(st,ot)):o&&(n=n.substr(1)),typeof u){case"function":if(l=u(r,i,ct,at,n,s,e,t),o)return l;break;case"string":l=ft(r,lt(u));break;case"object":if(l=ft(r,lt(u.i),u.f),l&&"function"==typeof u.u)return u.u(e,l,n,s,t)}return l?function(t,e,n,r=!1){if(r)return t instanceof it?r=>t.style(e,n(r)):r=>t.style[e]=n(r);if(Array.isArray(e)){const r=e.length;return i=>{const s=n(i);if(null==s)for(let n=0;n<r;n++)t[n].removeAttribute(e);else for(let n=0;n<r;n++)t[n].setAttribute(e,s)}}return r=>{const i=n(r);null==i?t.removeAttribute(e):t.setAttribute(e,i)}}(e,n,l,s):null}function gt(t,e,n,r){if(!r||"object"!=typeof r)return null;let i=null,s=null;return Array.isArray(r)?s=function(t){if(!t||!t.length)return null;for(let e=0;e<t.length;e++)t[e].e&&(t[e].e=at(t[e].e));return t.sort(ht)}(r):(s=r.keys,i=r.data||null),s?dt(t,e,n,s,i):null}function pt(t,e,n){if(!n)return null;const r=[];for(const i in n)if(n.hasOwnProperty(i)){const s=gt(t,e,i,n[i]);s&&r.push(s)}return r.length?r:null}function yt(t,e){if(!e.settings.duration||e.settings.duration<0)return null;const n=function(t,e){if(!e)return null;let n=[];if(Array.isArray(e)){const r=e.length;for(let i=0;i<r;i++){const r=e[i];if(2!==r.length)continue;let s=null;if("string"==typeof r[0])s=t.getElementById(r[0]);else if(Array.isArray(r[0])){s=[];for(let e=0;e<r[0].length;e++)if("string"==typeof r[0][e]){const n=t.getElementById(r[0][e]);n&&s.push(n)}s=s.length?1===s.length?s[0]:new it(s):null}if(!s)continue;const o=pt(t,s,r[1]);o&&(n=n.concat(o))}}else for(const r in e){if(!e.hasOwnProperty(r))continue;const i=t.getElementById(r);if(!i)continue;const s=pt(t,i,e[r]);s&&(n=n.concat(s))}return n.length?n:null}(t,e.elements);return n?function(t,e){const n=e.duration,r=t.length;let i=null;return(s,o)=>{const u=e.iterations||1/0,l=(e.alternate&&u%2==0)^e.direction>0?n:0;let a=s%n,c=1+(s-a)/n;o*=e.direction,e.alternate&&c%2==0&&(o=-o);let f=!1;if(c>u)a=l,f=!0,-1===e.fill&&(a=e.direction>0?0:n);else if(o<0&&(a=n-a),a===i)return!1;i=a;for(let e=0;e<r;e++)t[e](a);return f}}(n,e.settings):null}function mt(t,e=document,n=0){const r=function(t,e){const n=e.querySelectorAll("svg");for(let e=0;e<n.length;e++)if(n[e].id===t.root&&!n[e].svgatorAnimation)return n[e].svgatorAnimation=!0,n[e];return null}(t,e);if(r)return r;if(n>=20)return null;const i=function(t){const e=t=>t.shadowRoot;return document?Array.from(t.querySelectorAll(":not("+["a","area","audio","br","canvas","circle","datalist","embed","g","head","hr","iframe","img","input","link","object","path","polygon","rect","script","source","style","svg","title","track","video"].join()+")")).filter(e).map(e):[]}(e);for(let e=0;e<i.length;e++){const r=mt(t,i[e],n+1);if(r)return r}return null}function bt(t,e=null,n=Number,r="undefined"!=typeof BigInt&&BigInt){const i="0x"+(t.replace(/[^0-9a-fA-F]+/g,"")||27);return e&&r&&n.isSafeInteger&&!n.isSafeInteger(+i)?n(r(i))%e+e:+i}function vt(t,e=27){return!t||t%e?t%e:[0,1].includes(e)?e:vt(t/e,e)}function wt(t,e,n){if(!t||!t.length)return;const r=bt(n),i=vt(r)+5;let s=function(t,e,n){let r="";for(;t&&n&&e<=t.length;)r+=t.substring(0,e),t=t.substring(e+1),e=n;return r+t}(t,vt(r,5),i);return s=s.replace(/\x7c$/g,"==").replace(/\x2f$/g,"="),s=atob(s),s=s.replace(/[\x41-\x5A]/g,""),s=function(t,e,n){const r=+("0x"+t.substring(0,4));t=t.substring(4);const i=bt(e,r)%r+n%27,s=[];for(let e=0;e<t.length;e+=2){if("|"===t[e]){const n=+("0x"+t.substring(e+1,e+1+4))-i;e+=3,s.push(n);continue}const n=+("0x"+t[e]+t[e+1])-i;s.push(n)}return String.fromCharCode(...s)}(s,e,r),s=JSON.parse(s),s}const xt=[{key:"alternate",def:!1},{key:"fill",def:1},{key:"iterations",def:0},{key:"direction",def:1},{key:"speed",def:1},{key:"fps",def:100}];function At(t){return n(t)+""}function _t(t,e=" "){return t&&t.length?t.map(At).join(e):""}function St(t){return At(t.x)+","+At(t.y)}function kt(t){return t?null==t.a||t.a>=1?function(t){if(!t)return"transparent";const e=t=>parseInt(t).toString(16).padStart(2,"0");return function(t){const e=[];let n="#"===t[0]?e.push("#"):0;for(;n<t.length;n+=2){if(t[n]!==t[n+1])return t;e.push(t[n])}return e.join("")}("#"+e(t.r)+e(t.g)+e(t.b)+(null==t.a||t.a>=1?"":e(255*t.a)))}(t):"rgba("+t.r+","+t.g+","+t.b+","+t.a+")":"transparent"}function Et(t){return t?"url(#"+t+")":"none"}!function(){for(var t=0,e=["ms","moz","webkit","o"],n=0;n<e.length&&!window.requestAnimationFrame;++n)window.requestAnimationFrame=window[e[n]+"RequestAnimationFrame"],window.cancelAnimationFrame=window[e[n]+"CancelAnimationFrame"]||window[e[n]+"CancelRequestAnimationFrame"];window.requestAnimationFrame||(window.requestAnimationFrame=function(e){var n=Date.now(),r=Math.max(0,16-(n-t)),i=window.setTimeout((function(){e(n+r)}),r);return t=n+r,i},window.cancelAnimationFrame=window.clearTimeout)}();var Mt={f:null,i:X,u:(t,e)=>n=>{const r=e(n);t.setAttribute("rx",At(r.x)),t.setAttribute("ry",At(r.y))}},It={f:null,i:function(t,e,n){return 0===t?e:1===t?n:{width:Z(t,e.width,n.width),height:Z(t,e.height,n.height)}},u:(t,e)=>n=>{const r=e(n);t.setAttribute("width",At(r.width)),t.setAttribute("height",At(r.height))}};Object.freeze({M:2,L:2,Z:0,H:1,V:1,C:6,Q:4,T:2,S:4,A:7});let Nt={},jt=null;function Bt(t){let e=function(){if(jt)return jt;if("object"!=typeof document||!document.createElementNS)return{};let t=document.createElementNS("http://www.w3.org/2000/svg","svg");return t&&t.style?(t.style.position="absolute",t.style.opacity="0.01",t.style.zIndex="-9999",t.style.left="-9999px",t.style.width="1px",t.style.height="1px",jt={svg:t},jt):{}}().svg;if(!e)return function(t){return null};let n=document.createElementNS(e.namespaceURI,"path");n.setAttributeNS(null,"d",t),n.setAttributeNS(null,"fill","none"),n.setAttributeNS(null,"stroke","none"),e.appendChild(n);let r=n.getTotalLength();return function(t){let e=n.getPointAtLength(r*t);return{x:e.x,y:e.y}}}function Ot(t,e,n,r,i=1){let s=function(t){return Nt[t]?Nt[t]:Nt[t]=Bt(t)}(function(t,e,n,r){if(!t||!r)return!1;let i=["M",t.x,t.y];if(e&&n&&(i.push("C"),i.push(e.x),i.push(e.y),i.push(n.x),i.push(n.y)),e?!n:n){let t=e||n;i.push("Q"),i.push(t.x),i.push(t.y)}return e||n||i.push("L"),i.push(r.x),i.push(r.y),i.join(" ")}(t,e,n,r));try{return s(i)}catch(t){return null}}function Tt(t,e,n){return t+(e-t)*n}function Ft(t,e,n,r=!1){const i={x:Tt(t.x,e.x,n),y:Tt(t.y,e.y,n)};return r&&(i.a=function(t,e){return Math.atan2(e.y-t.y,e.x-t.x)}(t,e)),i}function Vt(t,e,n,r){const i=1-r;return i*i*t+2*i*r*e+r*r*n}function Rt(t,e,n,r){return 2*(1-r)*(e-t)+2*r*(n-e)}function Ct(t,e,n,r,i=!1){let s=Ot(t,e,null,n,r);return s||(s={x:Vt(t.x,e.x,n.x,r),y:Vt(t.y,e.y,n.y,r)}),i&&(s.a=function(t,e,n,r){return Math.atan2(Rt(t.y,e.y,n.y,r),Rt(t.x,e.x,n.x,r))}(t,e,n,r)),s}function Pt(t,e,n,r,i){const s=i*i;return i*s*(r-t+3*(e-n))+3*s*(t+n-2*e)+3*i*(e-t)+t}function $t(t,e,n,r,i){const s=1-i;return 3*(s*s*(e-t)+2*s*i*(n-e)+i*i*(r-n))}function Dt(t,e,n,r,i,s=!1){let o=Ot(t,e,n,r,i);return o||(o={x:Pt(t.x,e.x,n.x,r.x,i),y:Pt(t.y,e.y,n.y,r.y,i)}),s&&(o.a=function(t,e,n,r,i){return Math.atan2($t(t.y,e.y,n.y,r.y,i),$t(t.x,e.x,n.x,r.x,i))}(t,e,n,r,i)),o}function Lt(t,e,n,r=!1){if(zt(e)){if(Gt(n))return Ct(e,n.start,n,t,r)}else if(zt(n)){if(Wt(e))return Ct(e,e.end,n,t,r)}else{if(Wt(e))return Gt(n)?Dt(e,e.end,n.start,n,t,r):Ct(e,e.end,n,t,r);if(Gt(n))return Ct(e,n.start,n,t,r)}return Ft(e,n,t,r)}function qt(t,e,n){const r=Lt(t,e,n,!0);return r.a=o(function(t,e=!1){return e?t+Math.PI:t}(r.a)),r}function zt(t){return!t.type||"corner"===t.type}function Gt(t){return null!=t.start&&!zt(t)}function Wt(t){return null!=t.end&&!zt(t)}const Yt=new class{constructor(t=1,e=0,n=0,r=1,i=0,s=0){this.m=[t,e,n,r,i,s],this.i=null,this.w=null,this.s=null}get determinant(){const t=this.m;return t[0]*t[3]-t[1]*t[2]}get isIdentity(){if(null===this.i){const t=this.m;this.i=1===t[0]&&0===t[1]&&0===t[2]&&1===t[3]&&0===t[4]&&0===t[5]}return this.i}point(t,e){const n=this.m;return{x:n[0]*t+n[2]*e+n[4],y:n[1]*t+n[3]*e+n[5]}}translateSelf(t=0,e=0){if(!t&&!e)return this;const n=this.m;return n[4]+=n[0]*t+n[2]*e,n[5]+=n[1]*t+n[3]*e,this.w=this.s=this.i=null,this}rotateSelf(t=0){if(t%=360){t=s(t);const e=$(t),n=D(t),r=this.m,i=r[0],o=r[1];r[0]=i*n+r[2]*e,r[1]=o*n+r[3]*e,r[2]=r[2]*n-i*e,r[3]=r[3]*n-o*e,this.w=this.s=this.i=null}return this}scaleSelf(t=1,e=1){if(1!==t||1!==e){const n=this.m;n[0]*=t,n[1]*=t,n[2]*=e,n[3]*=e,this.w=this.s=this.i=null}return this}skewSelf(t,e){if(e%=360,(t%=360)||e){const n=this.m,r=n[0],i=n[1],o=n[2],u=n[3];t&&(t=z(s(t)),n[2]+=r*t,n[3]+=i*t),e&&(e=z(s(e)),n[0]+=o*e,n[1]+=u*e),this.w=this.s=this.i=null}return this}resetSelf(t=1,e=0,n=0,r=1,i=0,s=0){const o=this.m;return o[0]=t,o[1]=e,o[2]=n,o[3]=r,o[4]=i,o[5]=s,this.w=this.s=this.i=null,this}recomposeSelf(t=null,e=null,n=null,r=null,i=null){return this.isIdentity||this.resetSelf(),t&&(t.x||t.y)&&this.translateSelf(t.x,t.y),e&&this.rotateSelf(e),n&&(n.x&&this.skewSelf(n.x,0),n.y&&this.skewSelf(0,n.y)),!r||1===r.x&&1===r.y||this.scaleSelf(r.x,r.y),i&&(i.x||i.y)&&this.translateSelf(i.x,i.y),this}decompose(t=0,e=0){const r=this.m,i=r[0]*r[0]+r[1]*r[1],s=[[r[0],r[1]],[r[2],r[3]]];let u=W(i);if(0===u)return{origin:{x:n(r[4]),y:n(r[5])},translate:{x:n(t),y:n(e)},scale:{x:0,y:0},skew:{x:0,y:0},rotate:0};s[0][0]/=u,s[0][1]/=u;const l=r[0]*r[3]-r[1]*r[2]<0;l&&(u=-u);let a=s[0][0]*s[1][0]+s[0][1]*s[1][1];s[1][0]-=s[0][0]*a,s[1][1]-=s[0][1]*a;let c,f=W(s[1][0]*s[1][0]+s[1][1]*s[1][1]);return 0===f?{origin:{x:n(r[4]),y:n(r[5])},translate:{x:n(t),y:n(e)},scale:{x:n(u),y:0},skew:{x:0,y:0},rotate:0}:(s[1][0]/=f,s[1][1]/=f,a/=f,s[1][1]<0?(c=o(L(s[1][1])),s[0][1]<0&&(c=360-c)):c=o(q(s[0][1])),l&&(c=-c),a=o(G(a,W(s[0][0]*s[0][0]+s[0][1]*s[0][1]))),l&&(a=-a),{origin:{x:n(r[4]),y:n(r[5])},translate:{x:n(t),y:n(e)},scale:{x:n(u),y:n(f)},skew:{x:n(a),y:0},rotate:n(c)})}multiply(t){return this.clone().multiplySelf(t)}preMultiply(t){return t.multiply(this)}multiplySelf(t){const{a:e,b:n,c:r,d:i,tx:s,ty:o}=Y(this.m,t.m);return this.resetSelf(e,n,r,i,s,o),this}preMultiplySelf(t){const{a:e,b:n,c:r,d:i,tx:s,ty:o}=Y(t.m,this.m);return this.resetSelf(e,n,r,i,s,o),this}clone(){const t=this.m;return new this.constructor(t[0],t[1],t[2],t[3],t[4],t[5])}static create(t){return t?Array.isArray(t)?new this(...t):t instanceof this?t.clone():(new this).recomposeSelf(t.origin,t.rotate,t.skew,t.scale,t.translate):new this}toString(t=" ",e=!1){if(null===this.s){let r=this.m.map((t=>n(t)));e||1!==r[0]||0!==r[1]||0!==r[2]||1!==r[3]?this.s="matrix("+r.join(t)+")":this.s="translate("+r[4]+t+r[5]+")"}return this.s}};var Ut={f:function(t){return t?t.join(" "):""},i:function(t,e,n){if(0===t)return e;if(1===t)return n;let r=e.length;if(r!==n.length)return U(t,e,n);let i,s=new Array(r);for(let o=0;o<r;o++){if(i=typeof e[o],i!==typeof n[o])return U(t,e,n);if("number"===i)s[o]=H(t,e[o],n[o]);else{if(e[o]!==n[o])return U(t,e,n);s[o]=e[o]}}return s}},Ht={f:null,i:et,u:(t,e)=>n=>{const r=e(n);t.setAttribute("x1",At(r[0])),t.setAttribute("y1",At(r[1])),t.setAttribute("x2",At(r[2])),t.setAttribute("y2",At(r[3]))}},Zt={f:At,i:H},Jt={f:At,i:J},Qt={f:function(t,e=" "){return t&&t.length>0&&(t=t.map((t=>n(t,4)))),_t(t,e)},i:function(t,e,r){let i=e.length,s=r.length;if(i!==s)if(0===i)i=s,e=nt(i,0);else if(0===s)s=i,r=nt(i,0);else{const t=function(t,e){const n=t*e/function(t,e){let n;for(;e;)n=e,e=t%e,t=n;return t||1}(t,e);return n<0?-n:n}(i,s);e=rt(e,Math.floor(t/i)),r=rt(r,Math.floor(t/s)),i=s=t}let o=[];for(let s=0;s<i;s++)o.push(n(Z(t,e[s],r[s])));return o}};function Xt(t,e,r){return t.map((t=>function(t,e,r){let i=t.v;if(!i||"g"!==i.t||i.s||!i.v||!i.r)return t;const s=r.getElementById(i.r),o=s&&s.querySelectorAll("stop")||[];return i.s=i.v.map(((t,e)=>{let r=o[e]&&o[e].getAttribute("offset");return r=n(parseInt(r)/100),{c:t,o:r}})),delete i.v,t}(t,0,r)))}const Kt={gt:"gradientTransform",c:{x:"cx",y:"cy"},rd:"r",f:{x:"x1",y:"y1"},to:{x:"x2",y:"y2"}};function te(t,e,n,r,i,s,o,u){return Xt(t,0,u),e=function(t,e,n){let r,i,s;const o=t.length-1,u={};for(let l=0;l<=o;l++)r=t[l],r.e&&(r.e=e(r.e)),r.v&&(i=r.v,"g"===i.t&&i.r&&(s=n.getElementById(i.r),s&&(u[i.r]={e:s,s:s.querySelectorAll("stop")})));return u}(t,r,u),r=>{const i=n(r,t,ee);if(!i)return"none";if("c"===i.t)return kt(i.v);if("g"===i.t){if(!e[i.r])return Et(i.r);const t=e[i.r];return function(t,e){let n=t.s;for(let r=n.length;r<e.length;r++){const e=n[n.length-1].cloneNode();e.id=ie(e.id),t.e.appendChild(e),n=t.s=t.e.querySelectorAll("stop")}for(let t=0,r=n.length,i=e.length-1;t<r;t++)n[t].setAttribute("stop-color",kt(e[Math.min(t,i)].c)),n[t].setAttribute("offset",e[Math.min(t,i)].o)}(t,i.s),Object.keys(Kt).forEach((e=>{if(void 0===i[e])return;if("object"==typeof Kt[e])return void Object.keys(Kt[e]).forEach((n=>{if(void 0===i[e][n])return;const r=i[e][n],s=Kt[e][n];t.e.setAttribute(s,r)}));const n="gt"===e?(r=i[e],Array.isArray(r)?"matrix("+r.join(" ")+")":""):i[e];var r;const s=Kt[e];t.e.setAttribute(s,n)})),Et(i.r)}return"none"}}function ee(t,e,n){if(0===t)return e;if(1===t)return n;if(e&&n){const r=e.t;if(r===n.t)switch(e.t){case"c":return{t:r,v:tt(t,e.v,n.v)};case"g":if(e.r===n.r){const i={t:r,s:ne(t,e.s,n.s),r:e.r};return e.gt&&n.gt&&(i.gt=et(t,e.gt,n.gt)),e.c?(i.c=Q(t,e.c,n.c),i.rd=Z(t,e.rd,n.rd)):e.f&&(i.f=Q(t,e.f,n.f),i.to=Q(t,e.to,n.to)),i}}if("c"===e.t&&"g"===n.t||"c"===n.t&&"g"===e.t){const r="c"===e.t?e:n,i="g"===e.t?{...e}:{...n},s=i.s.map((t=>({c:r.v,o:t.o})));return i.s="c"===e.t?ne(t,s,i.s):ne(t,i.s,s),i}}return U(t,e,n)}function ne(t,e,n){if(e.length===n.length)return e.map(((e,r)=>re(t,e,n[r])));const r=Math.max(e.length,n.length),i=[];for(let s=0;s<r;s++){const r=re(t,e[Math.min(s,e.length-1)],n[Math.min(s,n.length-1)]);i.push(r)}return i}function re(t,e,n){return{o:J(t,e.o,n.o||0),c:tt(t,e.c,n.c||{})}}function ie(t){return t.replace(/-fill-([0-9]+)$/,((t,e)=>"-fill-"+(+e+1)))}function se(t,e,n){return 0===t?e:1===t?n:{blur:X(t,e.blur,n.blur),offset:Q(t,e.offset,n.offset),color:tt(t,e.color,n.color)}}const oe={blur:X,brightness:Z,contrast:Z,"drop-shadow":se,"inner-shadow":se,grayscale:Z,"hue-rotate":H,invert:Z,opacity:Z,saturate:Z,sepia:Z};function ue(t,e,n){if(0===t)return e;if(1===t)return n;const r=e.length;if(r!==n.length)return U(t,e,n);const i=[];let s;for(let o=0;o<r;o++){if(e[o].type!==n[o].type)return e;if(s=oe[e[o].type],!s)return U(t,e,n);i.push({type:e.type,value:s(t,e[o].value,n[o].value)})}return i}const le={blur:t=>t?e=>{t.setAttribute("stdDeviation",St(e))}:null,brightness:(t,e,n)=>(t=ce(n,e))?e=>{e=At(e),t.map((t=>t.setAttribute("slope",e)))}:null,contrast:(t,e,n)=>(t=ce(n,e))?e=>{const n=At((1-e)/2);e=At(e),t.map((t=>{t.setAttribute("slope",e),t.setAttribute("intercept",n)}))}:null,"drop-shadow"(t,e,n){const r=n.getElementById(e+"-blur");if(!r)return null;const i=n.getElementById(e+"-offset");if(!i)return null;const s=n.getElementById(e+"-flood");return s?t=>{r.setAttribute("stdDeviation",St(t.blur)),i.setAttribute("dx",At(t.offset.x)),i.setAttribute("dy",At(t.offset.y)),s.setAttribute("flood-color",kt(t.color))}:null},"inner-shadow"(t,e,n){const r=n.getElementById(e+"-blur");if(!r)return null;const i=n.getElementById(e+"-offset");if(!i)return null;const s=n.getElementById(e+"-color-matrix");return s?t=>{r.setAttribute("stdDeviation",St(t.blur)),i.setAttribute("dx",At(t.offset.x)),i.setAttribute("dy",At(t.offset.y));const e=[0,0,0,0,t.color.r/255,0,0,0,0,t.color.g/255,0,0,0,0,t.color.b/255,0,0,0,t.color.a,0];s.setAttribute("values",_t(e))}:null},grayscale:t=>t?e=>{t.setAttribute("values",_t(function(t){return[.2126+.7874*(t=1-t),.7152-.7152*t,.0722-.0722*t,0,0,.2126-.2126*t,.7152+.2848*t,.0722-.0722*t,0,0,.2126-.2126*t,.7152-.7152*t,.0722+.9278*t,0,0,0,0,0,1,0]}(e)))}:null,"hue-rotate":t=>t?e=>t.setAttribute("values",At(e)):null,invert:(t,e,n)=>(t=ce(n,e))?e=>{e=At(e)+" "+At(1-e),t.map((t=>t.setAttribute("tableValues",e)))}:null,opacity:(t,e,n)=>(t=n.getElementById(e+"-A"))?e=>t.setAttribute("tableValues","0 "+At(e)):null,saturate:t=>t?e=>t.setAttribute("values",At(e)):null,sepia:t=>t?e=>t.setAttribute("values",_t(function(t){return[.393+.607*(t=1-t),.769-.769*t,.189-.189*t,0,0,.349-.349*t,.686+.314*t,.168-.168*t,0,0,.272-.272*t,.534-.534*t,.131+.869*t,0,0,0,0,0,1,0]}(e))):null};const ae=["R","G","B"];function ce(t,e){const n=ae.map((n=>t.getElementById(e+"-"+n)||null));return-1!==n.indexOf(null)?null:n}var fe={fill:te,"fill-opacity":Jt,stroke:te,"stroke-opacity":Jt,"stroke-width":Zt,"stroke-dashoffset":{f:At,i:H},"stroke-dasharray":Qt,opacity:Jt,transform:function(t,e,n,r){if(!(t=function(t,e){if(!t||"object"!=typeof t)return null;let n=!1;for(const r in t)t.hasOwnProperty(r)&&(t[r]&&t[r].length?(t[r].forEach((t=>{t.e&&(t.e=e(t.e))})),n=!0):delete t[r]);return n?t:null}(t,r)))return null;const i=(r,i,s,o=null)=>t[r]?n(i,t[r],s):e&&e[r]?e[r]:o;return e&&e.a&&t.o?e=>{const r=n(e,t.o,qt);return Yt.recomposeSelf(r,i("r",e,H,0)+r.a,i("k",e,Q),i("s",e,Q),i("t",e,Q)).toString()}:t=>Yt.recomposeSelf(i("o",t,Lt,null),i("r",t,H,0),i("k",t,Q),i("s",t,Q),i("t",t,Q)).toString()},"#filter":function(t,e,n,r,i,s,o,u){if(!e.items||!t||!t.length)return null;const l=function(t,e){const n=(t=t.map((t=>t&&le[t[0]]?(e.getElementById(t[1]),le[t[0]](e.getElementById(t[1]),t[1],e)):null))).length;return e=>{for(let r=0;r<n;r++)t[r]&&t[r](e[r].value)}}(e.items,u);return l?(t=function(t,e){return t.map((t=>(t.e=e(t.e),t)))}(t,r),e=>{l(n(e,t,ue))}):null},"#line":Ht,points:{f:_t,i:et},d:Ut,r:Zt,"#size":It,"#radius":Mt,_(t,e){if(Array.isArray(t))for(let n=0;n<t.length;n++)this[t[n]]=e;else this[t]=e}};let he=function(t,e,n=n){let r=!1,i=null;return function(s){r&&clearTimeout(r),r=setTimeout((()=>function(){let s=0,o=n.innerHeight,u=0,l=n.innerWidth,a=t.parentNode;for(;a instanceof Element;){let t=n.getComputedStyle(a);if("visible"!==t.overflowY||"visible"!==t.overflowX){let e=a.getBoundingClientRect();"visible"!==t.overflowY&&(s=Math.max(s,e.top),o=Math.min(o,e.bottom)),"visible"!==t.overflowX&&(u=Math.max(u,e.left),l=Math.min(l,e.right))}if(a===a.parentNode)break;a=a.parentNode}r=!1;let c=t.getBoundingClientRect(),f=Math.min(c.height,Math.max(0,s-c.top)),h=Math.min(c.height,Math.max(0,c.bottom-o)),d=Math.min(c.width,Math.max(0,u-c.left)),g=Math.min(c.width,Math.max(0,c.right-l)),p=(c.height-f-h)/c.height,y=(c.width-d-g)/c.width,m=Math.round(p*y*100);null!==i&&i===m||(i=m,e(m))}()),100)}};class de{constructor(t,e,n){const r=function(t){var e,n;const r=t&&1===(null===(e=t.ownerDocument)||void 0===e||null===(n=e.childNodes)||void 0===n?void 0:n.length)&&window.parent!==window,i={el:t,window:window};if(!r)return i;let s;try{s=window.parent.document}catch(t){return i}return i.window=window.parent,i.el=Array.from(s.querySelectorAll("iframe,object")).filter((t=>t.contentWindow===window))[0]||i.el,i}(t);e=Math.max(1,e||1),e=Math.min(e,100),this.el=r.el,this._handlers=[],this.onThresholdChange=n&&n.call?n:()=>{},this.thresholdPercent=e||1,this.currentVisibility=null,this.visibilityCalculator=he(this.el,this.onVisibilityUpdate.bind(this),r.window),this.bindScrollWatchers(),this.visibilityCalculator()}bindScrollWatchers(){let t=this.el.parentNode;for(;t&&(this._handlers.push({element:t,event:"scroll",handler:this.visibilityCalculator}),t.addEventListener("scroll",this.visibilityCalculator),t!==t.parentNode&&t!==document);)t=t.parentNode}onVisibilityUpdate(t){let e=this.currentVisibility>=this.thresholdPercent,n=t>=this.thresholdPercent;if(null===this.currentVisibility||e!==n)return this.currentVisibility=t,void this.onThresholdChange(n);this.currentVisibility=t}destruct(){this._handlers.forEach((t=>{t.element.removeEventListener(t.event,t.handler)}))}}class ge{static adjustLink(t){var e,n;const r=t&&1===(null===(e=t.ownerDocument)||void 0===e||null===(n=e.childNodes)||void 0===n?void 0:n.length)&&window.parent!==window,i=null==t?void 0:t.firstElementChild;r&&i&&"a"===i.tagName&&!i.getAttribute("target")&&i.setAttributeNS(null,"target","_parent")}static autoPlay(t,e,n,r=[]){if("click"===n.start){const i=()=>{switch(n.click){case"freeze":return!t._running&&t.reachedToEnd()?t.restart():t.toggle();case"restart":return t.offset>0?t.restart():t.play();case"reverse":return t._running?t.reverse():t.reachedToEnd()?1===t.fill?t.reverse(!0):t.restart():t.play();case"none":default:if(t._running)return;return t.reachedToEnd()?t.restart():t.play()}};return r.push({element:e,event:"click",handler:i}),void e.addEventListener("click",i)}if("hover"===n.start){const i=()=>t.reachedToEnd()?t.restart():t._rollingBack?t.reverse():t.play();r.push({element:e,event:"mouseenter",handler:i}),e.addEventListener("mouseenter",i);const s=()=>{switch(n.hover){case"freeze":return t.pause();case"reset":return t.stop();case"reverse":if(t.reverse(),t._running)return;return t.play();case"none":default:return}};return r.push({element:e,event:"mouseleave",handler:s}),void e.addEventListener("mouseleave",s)}if("scroll"!==n.start)"programmatic"!==n.start&&t.play();else{const i=new de(e,n.scroll||25,(function(e){e?t.reachedToEnd()?t.restart():t.play():t.pause()}));r.push({callback:()=>i.destruct()})}}}class pe extends class{_svg;_rootId;constructor(t){this._id=0,this._running=!1,this._rollingBack=!1,this._animations=t.animations,this._settings=t.animationSettings,t.version<"2022-05-02"&&delete this._settings.speed,xt.forEach((t=>{this._settings[t.key]=this._settings[t.key]||t.def})),this.duration=t.animationSettings.duration,this.offset=t.animationSettings.offset||0,this.rollbackStartOffset=0,this._rootId=t.root,this._svg=t.svg,this._originalAnimations=t.originalAnimations,this._fTC=new O(this)}get svg(){return this._svg}get rootId(){return this._rootId}get alternate(){return this._settings.alternate}get fill(){return this._settings.fill}get iterations(){return this._settings.iterations}get direction(){return this._settings.direction}get speed(){return this._settings.speed}get fps(){return this._settings.fps}get wD(){return this._settings.w}get originalAnimations(){return this._originalAnimations}get maxFiniteDuration(){return this.iterations>0?this.iterations*this.duration:this.duration}static build(t,e){if(delete t.animationSettings,t.options=wt(t.options,t.root,"5c7f360c"),t.animations.map((e=>{e.settings=wt(e.s,t.root,"5c7f360c"),delete e.s,t.animationSettings||(t.animationSettings=e.settings)})),Object.assign(t,{originalAnimations:t.animations},function(t,e){if(ut=e,!t||!t.root||!Array.isArray(t.animations))return null;const n=mt(t);if(!n)return null;const r=t.animations.map((t=>yt(n,t))).filter((t=>!!t));return r.length?{svg:n,animations:r}:null}(t,e)),!t)return null;const n=t.options||{},r=new this(t);return{el:t.svg,options:n,player:r}}static push(t){return this.build(t)}static init(){const t=window.__SVGATOR_PLAYER__&&window.__SVGATOR_PLAYER__["5c7f360c"];Array.isArray(t)&&t.splice(0).forEach((t=>this.build(t)))}_apply(t,e={}){const n=this._animations,r=n.length;let i=0;for(let s=0;s<r;s++)e[s]?i++:(e[s]=n[s](t,1),e[s]&&i++);return i}_rollback(t){let e=1/0,n=null;this.rollbackStartOffset=t,this._rollingBack=!0,this._running=!0;const r=i=>{if(!this._rollingBack)return;null==n&&(n=i);let s=Math.round(t-(i-n)*this.speed);if(s>this.duration&&e!==1/0){const t=!!this.alternate&&s/this.duration%2>1;let e=s%this.duration;e+=t?this.duration:0,s=e||this.duration}const o=(this.fps?1e3/this.fps:0)*this.speed,u=Math.max(0,s);u<=e-o&&(this.offset=u,e=u,this._apply(u));const l=this.iterations>0&&-1===this.fill&&s>=this.maxFiniteDuration;(s<=0||this.offset<s||l)&&this.stop(),this._id=window.requestAnimationFrame(r)};this._id=window.requestAnimationFrame(r)}_start(t=0){let e,n=-1/0;const r={};this._running=!0;const i=s=>{e??=s;const o=Math.round((s-e)*this.speed+t),u=(this.fps?1e3/this.fps:0)*this.speed;o>=n+u&&!this._rollingBack&&this._fTC.cF(s,(()=>{this.offset=o,n=o;if(this._apply(o,r)===this._animations.length)return this.pause(!0),!0}))||(this._id=window.requestAnimationFrame(i))};this._id=window.requestAnimationFrame(i)}_pause(){this._id&&window.cancelAnimationFrame(this._id),this._running=!1}play(){if(!this._running)return this._rollingBack?this._rollback(this.offset):this._start(this.offset)}stop(){this._pause(),this.offset=0,this.rollbackStartOffset=0,this._rollingBack=!1,this._apply(0)}reachedToEnd(){return this.iterations>0&&this.offset>=this.iterations*this.duration}restart(t=!1){this.stop(t),this.play(t)}pause(){this._pause()}toggle(){return this._running?this.pause():this.reachedToEnd()?this.restart():this.play()}trigger(t,e){}_adjustOffset(t=!1){const e=this.alternate?2*this.duration:this.duration;if(t){if(!this._rollingBack&&0===this.offset)return void(this.offset=e);this._rollingBack&&(this.offset,this.maxFiniteDuration)}!this._rollingBack||this.rollbackStartOffset<=this.duration?0!==this.iterations&&(this.offset=Math.min(this.offset,this.maxFiniteDuration)):(this.offset=this.rollbackStartOffset-(this.rollbackStartOffset-this.offset)%e,this.rollbackStartOffset=0)}reverse(t=!1){if(!this._running)return this._adjustOffset(t),this._rollingBack=!this._rollingBack,t&&this.play(!1),void this.trigger("reverse",this.offset);this.pause(!1,!1),this._adjustOffset(),this._rollingBack=!this._rollingBack,this.play(!1),this.trigger("reverse",this.offset)}}{static build(t){let e=super.build(t,fe);if(!e)return null;let{el:n,options:r,player:i}=e;ge.adjustLink(n),ge.autoPlay(i,n,r)}}return pe.init(),pe}));
(function(s,i,o,w,d,a,b){w[o]=w[o]||{};w[o][s]=w[o][s]||[];w[o][s].push(i);})('5c7f360c',{"root":"epWKuzX542c1","version":"2025-04-07","animations":[{"elements":{"epWKuzX542c34":{"transform":{"data":{"t":{"x":40.215903,"y":-2.172809}},"keys":{"o":[{"t":0,"v":{"x":256.286766,"y":359.346831,"type":"corner"},"e":[0.47,0,0.745,0.715]},{"t":800,"v":{"x":256.37782,"y":358.176724,"type":"corner"},"e":[0.47,0,0.745,0.715]},{"t":2000,"v":{"x":256.798208,"y":356.008935,"type":"corner"},"e":[0.47,0,0.745,0.715]},{"t":2400,"v":{"x":256.72459,"y":354.523034,"type":"corner"},"e":[0.47,0,0.745,0.715]},{"t":2700,"v":{"x":256.69424,"y":352.465623,"type":"corner"}}],"s":[{"t":0,"v":{"x":0.356482,"y":-0.356482}},{"t":300,"v":{"x":0.4,"y":-0.356482}},{"t":700,"v":{"x":0.49,"y":-0.356482}},{"t":900,"v":{"x":0.58,"y":-0.356482}},{"t":1300,"v":{"x":0.66,"y":-0.356482}},{"t":1800,"v":{"x":0.72,"y":-0.356482}}]}},"opacity":[{"t":0,"v":0.22},{"t":400,"v":0.62},{"t":900,"v":0.77},{"t":1200,"v":0.9},{"t":1600,"v":0.53},{"t":2100,"v":0.24},{"t":2400,"v":0.15}]},"epWKuzX542c35":{"transform":{"data":{"s":{"x":0.72,"y":-0.356482},"t":{"x":39.833228,"y":-28.239162}},"keys":{"o":[{"t":10,"v":{"x":256.030911,"y":361.8042,"type":"corner"},"e":[0.39,0.575,0.565,1]},{"t":410,"v":{"x":255.746247,"y":359.619544,"type":"corner"},"e":[0.39,0.575,0.565,1]},{"t":810,"v":{"x":255.610702,"y":357.882248,"type":"corner"},"e":[0.39,0.575,0.565,1]},{"t":1800,"v":{"x":258.510139,"y":350.496048,"type":"corner"},"e":[0.39,0.575,0.565,1]},{"t":1910,"v":{"x":258.832299,"y":349.758203,"type":"corner"},"e":[0.39,0.575,0.565,1]},{"t":2810,"v":{"x":254.21,"y":346.396531,"type":"corner"}}]}},"opacity":[{"t":600,"v":0.77},{"t":1200,"v":0.9},{"t":1600,"v":0.53},{"t":2100,"v":0.24},{"t":2800,"v":0.15}]},"epWKuzX542c50":{"transform":{"data":{"t":{"x":-323.008239,"y":-132.057963}},"keys":{"o":[{"t":200,"v":{"x":324.534693,"y":132.057964,"type":"corner"}},{"t":600,"v":{"x":322.245012,"y":129.768284,"type":"corner"}},{"t":1000,"v":{"x":323.008239,"y":132.057964,"type":"corner"}}]}}},"epWKuzX542c64":{"transform":{"data":{"t":{"x":-320.53303,"y":-110.996685}},"keys":{"o":[{"t":0,"v":{"x":323.43617,"y":116.781635,"type":"corner"}},{"t":300,"v":{"x":323.007082,"y":116.352548,"type":"corner"}}],"r":[{"t":0,"v":0},{"t":200,"v":2.558398},{"t":700,"v":-6.44651},{"t":1200,"v":-1.682296},{"t":1500,"v":3.301421},{"t":2000,"v":-0.267944}]}}},"epWKuzX542c81":{"transform":{"data":{"o":{"x":309.547887,"y":88.433167,"type":"corner"}},"keys":{"s":[{"t":0,"v":{"x":1,"y":1}},{"t":500,"v":{"x":1.65,"y":0.2}},{"t":1000,"v":{"x":1,"y":1}}]}}},"epWKuzX542c86":{"fill":[{"t":0,"v":null},{"t":1000,"v":{"t":"c","v":{"r":255,"g":255,"b":255,"a":1}}},{"t":2800,"v":null}]},"epWKuzX542c88":{"transform":{"data":{"t":{"x":-360.58689,"y":-144.521099}},"keys":{"o":[{"t":400,"v":{"x":360.586891,"y":144.381785,"type":"corner"}},{"t":500,"v":{"x":361.470255,"y":143.49842,"type":"corner"}},{"t":700,"v":{"x":361.59,"y":144.8,"type":"corner"}}]}}},"epWKuzX542c144":{"transform":{"data":{"t":{"x":-271.808783,"y":-146.590195}},"keys":{"o":[{"t":200,"v":{"x":272.692148,"y":146.148513,"type":"corner"}},{"t":500,"v":{"x":272.692148,"y":144.381785,"type":"corner"}},{"t":800,"v":{"x":271.367102,"y":145.706832,"type":"corner"}}]}}},"epWKuzX542c149":{"transform":{"data":{"o":{"x":238.33222,"y":206.913938,"type":"corner"},"s":{"x":-1,"y":-1},"t":{"x":-238.878801,"y":-207.144838}},"keys":{"r":[{"t":0,"v":179,"e":[0.47,0,0.745,0.715]},{"t":500,"v":10,"e":[0.47,0,0.745,0.715]},{"t":1000,"v":7.70131}]}}},"epWKuzX542c150":{"transform":{"data":{"o":{"x":271.72982,"y":252.226907,"type":"corner"},"s":{"x":1,"y":-1},"t":{"x":-271.729819,"y":-252.226906}},"keys":{"r":[{"t":500,"v":442.669732},{"t":1000,"v":482.443933},{"t":1400,"v":450.172576},{"t":1800,"v":483.671856},{"t":2200,"v":448.61045},{"t":2600,"v":492.02358}]}}},"epWKuzX542c201":{"transform":{"data":{"o":{"x":135.33781,"y":207.03926,"type":"corner"},"t":{"x":-135.33781,"y":-207.03926}},"keys":{"r":[{"t":0,"v":720,"e":[0.415,0.08,0.115,0.955]},{"t":7700,"v":0,"e":[1,0]}]}},"fill":[{"t":0,"v":{"t":"c","v":{"r":210,"g":219,"b":237,"a":1}}},{"t":7700,"v":{"t":"c","v":{"r":210,"g":219,"b":236,"a":1}}}]},"epWKuzX542c202":{"transform":{"data":{"o":{"x":11.12,"y":29.9,"type":"corner"},"s":{"x":0.3,"y":0.3},"t":{"x":-95.902813,"y":-108.465}},"keys":{"r":[{"t":0,"v":-720,"e":[0.415,0.08,0.115,0.955]},{"t":7700,"v":0,"e":[1,0]}]}}}},"s":"MJDBkNmYyOTlkYmVjZTVlkOGViZTBlNmU1OTlBiMWE5YWVhN2E3YTM5MOUpOZGJlMGU5ZGNkYNWViZTBlNmU1OTliMUDJhOGEzOTllMGViZGNSlOUJkOGViRGUwZTZlQNWVhRDk5YjFhN2EzOQTlkZGUwZTNlMzk5YjOFhOEphMzk5ZDhlM2VMiZGNlOWU1SGQ4ZWJkXYzk5YjFkZGQ4ZTNlYPVJkY2EzOTllYWU3ZGFNkY2RiOTliMWE4YTMX5OVJkZGU3ZWE5OWIxWYThhN2E3YTM5OWVlOITliMUtkMk05OWQ4YTWhkZGQ4ZGJkOWFiYWJShYWRiYWRJYThXYWJhAN2E4ZGFhZmIwZGJkORWRiYThiMGFiYTdhOGERkYWVhYmE3YWZkOWQL4ZGNhZGFiYWVkYmE5OVENkYWFkYWJhZmFiYVTlhOGRkZGFhYWQ4QWLE5ZDhkZFdkOFNhZGRWjZGFhOGRhWGRiZGRhCY2E3ZGQ5OWEzOTlhOMGIwYWM5OWEzOTlhOGJIwYWQ5OVNhMzk5YThGiMGFlOTlhMzk5YThiKMExhZjk5YTM5OWE4SMmIwSWIwOTlhMzk5YTUlhN2E3OTlhMzk5YTlUhN2E4OTlhMzk5YTlhUN2E5OTlkNGY0"}],"options":"MEDAxMDg4MmY4MDgxQzXZlN2Y4MTJmNDcyZjcW5N2M2ZTcxVjJmOGE/J"},'__SVGATOR_PLAYER__',window,document)
]]></script>
</svg>
